<svg width="324" height="148" viewBox="0 0 324 148" fill="none" xmlns="http://www.w3.org/2000/svg">
<g clip-path="url(#clip0_2065_15853)">
<path d="M13.6665 132.983H15.0735V131.536H13.6665V130.482H12.125V131.536H11.6479V129.587H14.6942V128.165H11.6479V127.172H10.1063V128.165H7.08448V129.587H10.1063V131.536H9.6292V130.482H8.09992V131.536H6.70522V132.983H8.09992V134.625H6.42383V136.035H8.57706L7.57385 140.902H9.13983L10.1308 136.035H11.2074V140.755H15.3793V139.21H12.7245V136.047H15.3793V134.637H13.6787V132.995L13.6665 132.983ZM12.125 132.983V134.625H9.6292V132.983H12.125Z" fill="#080103"/>
<path d="M2.94657 130.041H1.50293V135.165H2.94657V130.041Z" fill="#080103"/>
<path d="M4.81991 133.567L6.81409 130.159H5.08906L4.81991 130.637V127.352H3.32733V135.528L1.49219 140.714H3.08264L4.12255 137.759L4.61192 139.01H6.22685L4.81991 135.528V133.567Z" fill="#080103"/>
<path d="M32.8239 127.145H31.3558V127.782H28.1505V127.145H26.6579V127.782H23.0732V129.241H26.6579V129.854H28.1505V129.241H31.3558V129.854H32.8239V129.241H36.4086V127.782H32.8239V127.145Z" fill="#080103"/>
<path d="M30.463 135.652H34.537V130.111H24.9453V135.652H29.0193V136.228H23.1958V137.687H27.4778L24.0155 140.286H26.4501L29.0193 138.337V141.046H30.463V138.337L33.0322 140.286H35.4668L32.0045 137.687H36.3109V136.228H30.463V135.652ZM26.2911 132.171V131.435H29.0315V132.171H26.2911ZM26.2911 134.328V133.605H29.0315V134.328H26.2911ZM33.2157 133.617V134.341H30.463V133.617H33.2157ZM33.2157 131.435V132.171H30.463V131.435H33.2157Z" fill="#080103"/>
<path d="M53.2321 134.651C53.1954 133.131 52.3879 131.697 52.3879 131.697L55.2752 127.847C53.0241 127.86 48.0815 127.811 48.0815 127.811V130.042C49.5251 130.091 51.8985 129.882 51.8985 129.882C51.4704 130.593 50.3937 131.905 50.3937 131.905C51.2134 132.653 51.4092 133.781 51.4704 134.774C50.1491 134.921 45.0963 134.737 45.0963 134.737L45.0474 136.612C47.0783 136.625 51.3847 136.502 51.3847 136.502L51.4214 138.758C50.9443 138.745 49.9411 138.647 49.9411 138.647C50.1858 138.758 52.3145 140.976 52.3145 140.976C53.5624 139.407 53.3911 136.821 53.3911 136.821C54.3943 136.858 57.7098 136.772 57.7098 136.772L57.8322 134.565C55.4343 134.712 53.2199 134.639 53.2199 134.639L53.2321 134.651Z" fill="#080103"/>
<path d="M68.6577 138.782C68.9758 139.236 69.4774 140.351 69.4774 140.351L71.0434 139.37C70.9578 139.248 69.7955 138.01 69.7955 138.01L68.6577 138.782Z" fill="#080103"/>
<path d="M72.3531 129.327V130.038L69.001 130.198L69.0377 134.488C71.717 135.028 77.4181 134.525 77.4181 134.525C77.6506 133.446 77.4915 130.051 77.4915 130.051L74.2005 129.977V129.278C74.7144 129.315 78.3235 129.352 78.3235 129.352L78.3969 127.709L74.2005 127.905C74.2128 127.452 74.2739 126.594 74.2739 126.594L72.1819 126.631L72.2308 127.905H67.7286L67.6919 129.352C68.0834 129.462 72.3531 129.315 72.3531 129.315V129.327ZM70.5669 131.277C70.5669 131.277 72.0106 131.264 72.1329 131.264V131.841C72.1329 131.841 71.1542 131.926 70.5425 131.877V131.289L70.5669 131.277ZM72.1941 133.692C72.1941 133.692 71.0318 133.765 70.6404 133.692V132.981L72.2063 132.907V133.692H72.1941ZM74.2984 133.52L74.2617 132.809C74.2617 132.809 75.0814 132.772 75.6197 132.735V133.471C75.0325 133.544 75.0447 133.52 74.2984 133.52ZM74.1883 131.154H75.6197V131.767C75.6197 131.767 74.8489 131.804 74.1883 131.816V131.154Z" fill="#080103"/>
<path d="M75.6194 135.123H73.821L73.8332 135.969C73.5518 136.006 66.7129 136.116 66.7129 136.116L66.7985 137.759C67.0677 137.759 73.8332 137.612 73.8332 137.612C73.8699 137.894 73.821 139.548 73.821 139.548H72.3774C73.4295 140.1 75.4482 141.461 75.4482 141.461C75.8397 140.051 75.6317 137.673 75.6317 137.673L78.8248 137.759V135.773L75.6684 135.932L75.6317 135.123H75.6194Z" fill="#080103"/>
<path d="M88.2202 139.982L89.9697 139.798L90.0064 133.141C91.6703 133.215 93.273 132.982 93.273 132.982L93.3953 128.201C93.1506 128.115 88.6851 128.115 88.6851 128.115C88.7585 128.618 88.2202 139.982 88.2202 139.982ZM91.7804 131.781C91.7804 131.781 90.875 131.866 90.349 131.83L90.3123 130.947L91.8171 130.984L91.7804 131.768V131.781ZM90.2022 129.12H91.5969L91.5235 129.893C91.5235 129.893 90.716 129.942 90.1899 129.893V129.12H90.2022Z" fill="#080103"/>
<path d="M95.4756 127.93L95.6958 132.564C97.482 132.711 99.2804 132.441 99.2804 132.441C99.3661 133.557 99.5007 138.718 99.5007 138.718H98.106C98.4975 138.951 100.773 141.059 100.773 141.059C100.895 138.595 100.577 127.832 100.577 127.832C100.235 127.832 95.4878 127.918 95.4878 127.918L95.4756 127.93ZM97.1027 128.972H98.7421V129.585C98.7421 129.585 97.69 129.708 97.1394 129.708L97.1027 128.972ZM97.2618 131.338L97.2251 130.762L98.7054 130.603L98.7788 131.338C98.7788 131.338 98.0325 131.461 97.2618 131.338Z" fill="#080103"/>
<path d="M117.485 128.738L117.644 126.863L115.124 126.789L115.271 129.02L110.793 129.094C111.148 130.773 111.576 134.181 109.288 136.952C113.754 136.363 113.374 130.687 113.374 130.687C115.075 130.614 121.853 130.798 121.853 130.798L122.012 128.775L117.473 128.738H117.485Z" fill="#080103"/>
<path d="M117.694 131.584H115.785L115.858 136.218C115.504 136.218 113.448 136.524 113.448 136.524V140.386C113.876 140.459 120.14 140.582 120.14 140.582C120.752 139.111 120.593 136.291 120.593 136.291L117.559 136.132L117.473 134.796C118.513 134.747 120.728 134.747 120.728 134.747L120.801 132.92L117.62 133.165L117.706 131.596L117.694 131.584ZM118.22 137.885V138.927C118.22 138.927 116.482 139.246 115.222 138.804V138.032L118.22 137.885Z" fill="#080103"/>
<path d="M0.758301 25.127H14.0569C19.5501 25.127 23.9545 29.1969 23.9545 34.3823C23.9545 37.4715 22.6943 39.3962 20.3821 41.1614V41.2717C23.7954 43.699 25.2146 46.0036 25.2146 49.4238C25.2146 53.9963 21.581 58.1766 15.3171 58.1766H0.758301V25.127ZM12.6255 38.2806C14.4974 38.2806 15.8187 37.0179 15.8187 35.1914C15.8187 33.4874 14.4974 32.1635 12.6255 32.1635H8.78398V38.2806H12.6255ZM13.6777 50.9562C15.5495 50.9562 16.7607 49.8529 16.7607 48.0876C16.7607 46.494 15.5495 45.17 13.6777 45.17H8.78398V50.9562H13.6777Z" fill="#040000"/>
<path d="M45.7061 24.0254H47.1375L63.299 58.166H54.6127L52.9611 54.7458H39.9316L38.3411 58.166H29.6548L45.7061 24.0254ZM50.2084 48.972L46.4157 40.5992H46.3056L42.4641 48.972H50.2084Z" fill="#040000"/>
<path d="M69.8574 25.1275H77.932V39.887H78.0421L87.5482 25.1275H96.4547L85.138 40.8187L97.0664 58.1648H88.1599L78.0421 42.1427H77.932V58.1648H69.8574V25.1152V25.1275Z" fill="#040000"/>
<path d="M103.416 25.1294H125.241V32.2886H111.502V38.2341H124.202V45.2828H111.502V51.2283H125.853V58.1668H103.428V25.1172L103.416 25.1294Z" fill="#040000"/>
<path d="M134.088 25.1275H145.576C155.302 25.1275 162.838 32.2866 162.838 41.591C162.838 50.4051 156.134 58.1648 145.576 58.1648H134.088V25.1152V25.1275ZM145.405 50.7851C150.567 50.7851 154.531 47.1442 154.531 41.591C154.531 36.4668 151.069 32.446 145.405 32.446H142.163V50.7851H145.405Z" fill="#040000"/>
<path d="M6.71571 89.4135C6.71571 91.0194 8.00031 92.2943 9.55406 92.2943C11.2424 92.2943 12.2945 91.3381 12.2945 89.9161C12.2945 87.8566 9.603 87.2559 7.36413 86.4836C2.75181 84.8287 0.182617 82.6834 0.182617 77.9638C0.182617 73.2441 4.34227 69.0762 9.50513 69.0762C15.5856 69.0762 18.4606 72.9745 18.8276 78.0496H12.5148C12.5148 76.4927 11.5605 75.2056 9.67641 75.2056C8.20829 75.2056 6.80135 76.0759 6.80135 77.8657C6.80135 79.9252 9.30938 80.2929 11.6461 80.9794C16.5398 82.4505 18.8276 85.1964 18.8276 89.4993C18.8276 94.3537 14.7169 98.3869 9.55406 98.3869C3.57151 98.3869 0.182617 94.3537 0.182617 89.4135H6.71571Z" fill="#040000"/>
<path d="M22.9395 69.998H29.9742L35.504 82.9556L38.844 74.3499L37.1067 69.998H44.0558L49.5367 82.9065L54.565 69.998H61.563L50.1362 98.3893H49.2187L42.4531 82.5388L35.92 98.3893H35.0514L22.9395 69.998Z" fill="#040000"/>
<path d="M66.9443 69.998H85.0878V75.9558H73.6609V80.8961H84.2191V86.7558H73.6609V91.6961H85.5894V97.4699H66.9443V69.998Z" fill="#040000"/>
<path d="M92.4424 69.998H110.586V75.9558H99.159V80.8961H109.717V86.7558H99.159V91.6961H111.087V97.4699H92.4424V69.998Z" fill="#040000"/>
<path d="M121.939 75.9558H115.81V69.998H134.92V75.9558H128.705V97.4822H121.939V75.9558Z" fill="#040000"/>
<path d="M146.859 89.4135C146.859 91.0194 148.144 92.2943 149.698 92.2943C151.386 92.2943 152.438 91.3381 152.438 89.9161C152.438 87.8566 149.747 87.2559 147.508 86.4836C142.895 84.8287 140.326 82.6834 140.326 77.9638C140.326 73.2441 144.486 69.0762 149.649 69.0762C155.729 69.0762 158.604 72.9745 158.971 78.0496H152.658C152.658 76.4927 151.704 75.2056 149.82 75.2056C148.352 75.2056 146.945 76.0759 146.945 77.8657C146.945 79.9252 149.453 80.2929 151.79 80.9794C156.683 82.4505 158.971 85.1964 158.971 89.4993C158.971 94.3537 154.86 98.3869 149.698 98.3869C143.715 98.3869 140.326 94.3537 140.326 89.4135H146.859Z" fill="#040000"/>
<path d="M163.805 107.689H0V113.831H163.805V107.689Z" fill="#040000"/>
<path d="M318.35 64.1035C319.756 58.6729 328.296 47.7994 322.264 33.9837C313.125 13.0948 312.832 14.7007 302.017 8.08098C289.477 0.394738 267.712 -2.21638 257.423 2.02515C255.967 2.62583 245.531 7.43127 237.077 6.1441C224.452 -1.24794 203.164 5.70278 192.655 18.7584C187.296 25.4149 169.985 31.2255 176.371 55.6817C177.044 58.2806 180.31 66.1507 181.362 66.7269C186.782 69.6567 187.394 119.905 188.128 134.984C189.095 154.769 236.833 146.654 254.425 144.693C268.189 143.16 306.274 148.517 311.033 142.143C315.597 136.013 317.42 112.538 317.836 103.393C318.276 96.1969 318.35 64.1035 318.35 64.1035Z" fill="#040000"/>
<path d="M209.83 35.9369L206.698 29.5991C205.927 30.1018 205.376 30.7392 205.058 31.5115C204.74 32.2838 204.679 33.1542 204.887 34.1349C204.985 34.5762 205.083 34.8704 205.205 35.0298C205.327 35.1891 205.389 35.275 205.389 35.2995C204.752 35.4343 204.239 35.4098 203.872 35.2014C203.505 35.0053 203.248 34.5885 203.113 33.9755C202.954 33.2155 203.113 32.4064 203.578 31.5483C204.043 30.6902 204.728 29.9424 205.609 29.2927C206.49 28.643 207.42 28.2139 208.386 28.0055C208.557 27.9687 208.79 27.932 209.108 27.8952L212.02 33.9633L213.316 27.0616L214.491 26.8164L212.692 35.3608V41.1101L209.83 41.7231V35.9737V35.9369Z" fill="white"/>
<path d="M216.496 39.6495C215.946 39.2817 215.567 38.6075 215.359 37.6146C215.175 36.7319 215.151 35.7757 215.298 34.7215C215.444 33.6795 215.787 32.7478 216.337 31.9265C216.888 31.1052 217.646 30.5903 218.613 30.3819C219.102 30.2838 219.482 30.2838 219.751 30.3941C220.02 30.5045 220.191 30.7006 220.252 30.9826L220.277 31.1052V30.1122L222.834 29.5605V35.9106C222.834 36.0945 222.846 36.2906 222.895 36.499C223.005 37.0139 223.299 37.21 223.788 37.1119C224.118 37.0384 224.375 36.83 224.559 36.4622C224.742 36.1067 224.84 35.6531 224.877 35.126L225.623 34.9667C225.452 36.3519 225.097 37.3326 224.547 37.9333C223.996 38.534 223.397 38.9017 222.736 39.0366C222.234 39.1469 221.806 39.0856 221.439 38.8772C221.072 38.6688 220.803 38.2888 220.632 37.7739C220.387 38.3378 220.093 38.8159 219.739 39.2082C219.384 39.6005 218.907 39.8579 218.332 39.9805C217.659 40.1276 217.035 40.0173 216.496 39.6495ZM219.922 37.3939C220.155 37.0506 220.277 36.6216 220.277 36.119V31.902C220.24 31.7426 220.155 31.6078 219.995 31.4852C219.849 31.3626 219.641 31.3258 219.396 31.3748C218.919 31.4729 218.552 31.8407 218.295 32.4781C218.038 33.1156 217.879 33.8389 217.83 34.6724C217.781 35.4938 217.83 36.2048 217.952 36.8055C218.075 37.4062 218.246 37.7617 218.454 37.8965C218.662 38.0313 218.894 38.0681 219.139 38.0068C219.433 37.9455 219.702 37.7371 219.934 37.3939H219.922Z" fill="white"/>
<path d="M231.459 36.6331C231.007 36.3634 230.713 35.8975 230.566 35.2478C230.505 34.9659 230.481 34.6471 230.481 34.2916V33.5684C230.481 33.36 230.456 33.1271 230.407 32.8941C230.285 32.318 230.016 32.0851 229.587 32.1709C229.392 32.2076 229.208 32.3057 229.025 32.4651C228.841 32.6122 228.633 32.8328 228.413 33.1148V37.7241L225.856 38.2757V25.5757L228.425 24.6562V31.2269L231.288 27.7822L233.05 27.4022L230.016 30.6385C230.187 30.5527 230.37 30.4914 230.591 30.4424C231.227 30.3075 231.765 30.3933 232.181 30.7243C232.597 31.0553 232.866 31.5089 233.001 32.1218C233.05 32.367 233.074 32.5999 233.074 32.8206V33.7522C233.05 33.9852 233.074 34.1813 233.099 34.3407C233.197 34.782 233.466 34.9536 233.931 34.8555C234.285 34.782 234.542 34.5858 234.701 34.2916C234.86 33.9852 234.995 33.5438 235.093 32.9677L235.839 32.8083C235.57 35.162 234.714 36.4982 233.258 36.8047C232.524 36.964 231.924 36.9027 231.471 36.6331H231.459Z" fill="white"/>
<path d="M236.279 25.2819C235.949 25.0612 235.741 24.767 235.655 24.3747C235.57 23.9824 235.631 23.6147 235.851 23.2837C236.059 22.9404 236.365 22.732 236.756 22.6462C237.148 22.5604 237.515 22.634 237.858 22.8546C238.2 23.0753 238.408 23.3818 238.494 23.774C238.579 24.1663 238.506 24.5341 238.286 24.8651C238.065 25.196 237.76 25.4044 237.368 25.4903C236.977 25.5761 236.61 25.5025 236.279 25.2941V25.2819ZM236.781 35.4934C236.353 35.2115 236.071 34.7088 235.912 33.9978C235.851 33.7036 235.814 33.2991 235.814 32.8087V26.8142L238.371 26.2626V32.6126C238.371 32.7965 238.384 32.9926 238.433 33.201C238.481 33.4339 238.579 33.5933 238.714 33.6791C238.848 33.7527 239.044 33.7649 239.313 33.7159C239.656 33.6423 239.95 33.4339 240.182 33.0784C240.414 32.7229 240.549 32.2939 240.586 31.8035L241.332 31.6442C241.161 33.0294 240.781 34.0224 240.194 34.623C239.607 35.2237 238.971 35.6037 238.286 35.7508C237.711 35.8734 237.221 35.7876 236.793 35.5057L236.781 35.4934Z" fill="white"/>
<path d="M244.733 38.4456C244.293 38.2249 244.012 37.8449 243.889 37.281C243.742 36.6068 243.901 35.9938 244.366 35.4667C244.831 34.9396 245.443 34.4492 246.238 33.9957V33.0027C245.786 33.7873 245.137 34.2654 244.317 34.437C243.645 34.5841 243.021 34.4738 242.482 34.106C241.932 33.7382 241.553 33.064 241.345 32.071C241.161 31.1884 241.137 30.2322 241.283 29.178C241.43 28.136 241.773 27.2043 242.323 26.383C242.874 25.5616 243.632 25.0468 244.599 24.8384C245.088 24.7403 245.467 24.7403 245.737 24.8506C246.006 24.961 246.177 25.1571 246.238 25.4391L246.263 25.5494V24.5809L248.832 24.0293V32.6962C249.358 32.3898 249.749 31.9975 250.019 31.5439C250.288 31.0903 250.459 30.4651 250.532 29.6561L251.279 29.4967C251.181 30.6245 250.912 31.4949 250.471 32.1078C250.031 32.7208 249.48 33.1866 248.832 33.5176V34.866C248.844 36.0674 248.599 36.95 248.11 37.5139C247.621 38.0778 247.009 38.4333 246.275 38.5927C245.7 38.7153 245.198 38.6663 244.758 38.4456H244.733ZM245.871 31.9117C246.104 31.6052 246.226 31.2252 246.238 30.7716V26.3462C246.214 26.1991 246.128 26.0765 245.981 25.9417C245.834 25.8191 245.627 25.7823 245.382 25.8313C244.905 25.9294 244.538 26.2972 244.269 26.9346C244.012 27.5721 243.853 28.2953 243.804 29.1289C243.755 29.9503 243.804 30.6613 243.926 31.262C244.048 31.8626 244.22 32.2181 244.428 32.353C244.636 32.4878 244.868 32.5246 245.113 32.4633C245.382 32.402 245.639 32.2181 245.871 31.9117ZM246.055 36.7416C246.189 36.4229 246.25 36.0061 246.25 35.4667V34.9273C245.174 35.6016 244.697 36.239 244.819 36.8152C244.856 36.9745 244.929 37.0971 245.064 37.1952C245.198 37.2933 245.357 37.3178 245.553 37.281C245.761 37.232 245.92 37.0604 246.055 36.7416Z" fill="white"/>
<path d="M252.479 31.9757C251.929 31.6079 251.55 30.9337 251.342 29.9407C251.158 29.0581 251.134 28.1019 251.28 27.0477C251.427 26.0057 251.77 25.074 252.32 24.2527C252.871 23.4313 253.629 22.9165 254.596 22.7081C255.085 22.61 255.465 22.61 255.734 22.7203C256.003 22.8306 256.174 23.0268 256.235 23.3087L256.26 23.4313V22.4384L258.817 21.8867V28.2368C258.817 28.4206 258.829 28.6168 258.878 28.8252C258.988 29.34 259.282 29.5362 259.771 29.4381C260.101 29.3646 260.358 29.1562 260.542 28.7884C260.725 28.4329 260.823 27.9793 260.86 27.4522L261.606 27.2928C261.435 28.6781 261.08 29.6588 260.53 30.2595C259.979 30.8601 259.38 31.2279 258.719 31.3627C258.217 31.4731 257.789 31.4118 257.422 31.2034C257.055 30.995 256.786 30.615 256.615 30.1001C256.37 30.664 256.076 31.1421 255.721 31.5344C255.367 31.9266 254.89 32.1841 254.315 32.3067C253.642 32.4538 253.018 32.3434 252.479 31.9757ZM255.905 29.7323C256.137 29.3891 256.26 28.96 256.26 28.4574V24.2404C256.223 24.081 256.137 23.9462 255.978 23.8236C255.832 23.701 255.624 23.6642 255.379 23.7133C254.902 23.8113 254.535 24.1791 254.266 24.8166C254.009 25.454 253.85 26.1773 253.801 27.0109C253.752 27.8322 253.801 28.5432 253.923 29.1439C254.045 29.7446 254.217 30.1001 254.425 30.2349C254.633 30.3698 254.865 30.4066 255.11 30.3453C255.403 30.284 255.673 30.0756 255.905 29.7323Z" fill="white"/>
<path d="M262.913 30.1389C262.473 30.0041 262.118 29.7834 261.861 29.4647C261.592 29.1582 261.42 28.8027 261.347 28.4227C261.261 28.0304 261.286 27.6627 261.408 27.3317C261.531 27.0007 261.714 26.7433 261.947 26.5594C262.228 25.6277 262.46 24.6961 262.619 23.7767C262.779 22.8572 262.913 21.8643 263.011 20.81L265.568 19.8906C265.947 21.3985 266.4 23.0289 266.926 24.7696C267.134 25.4684 267.281 25.9832 267.342 26.302C267.403 26.5717 267.428 26.8046 267.415 27.0007C267.905 26.5594 268.272 26.1671 268.504 25.8361L269.25 25.6768C268.675 26.7188 267.929 27.6627 266.999 28.484C266.73 28.9253 266.363 29.2931 265.898 29.5628C265.433 29.8325 264.944 30.0409 264.43 30.1512C263.855 30.2738 263.354 30.2615 262.913 30.1267V30.1389ZM264.577 28.2511C264.822 27.9324 264.883 27.4665 264.748 26.8904C264.675 26.5349 264.528 26.0445 264.32 25.4071C263.916 24.0709 263.647 23.176 263.513 22.7224C263.427 23.7276 263.182 24.9535 262.791 26.4C263.097 26.4858 263.28 26.6697 263.329 26.9394C263.378 27.1601 263.341 27.3807 263.231 27.5891C263.121 27.7975 262.95 27.9324 262.73 27.9814C262.485 28.0304 262.301 27.9814 262.203 27.8466C262.289 28.2756 262.448 28.5698 262.668 28.7415C262.889 28.9131 263.182 28.9498 263.562 28.864C264.002 28.766 264.344 28.5576 264.589 28.2388L264.577 28.2511Z" fill="white"/>
<path d="M274.695 27.3644C274.279 27.0457 273.997 26.6044 273.887 26.0405C273.838 25.7953 273.802 25.5011 273.802 25.1701C273.802 24.8391 273.802 24.5204 273.802 24.2139C273.802 23.9074 273.802 23.699 273.814 23.6132C273.814 23.1719 273.814 22.7428 273.814 22.326C273.814 21.9093 273.789 21.566 273.728 21.3208C273.594 20.7079 273.324 20.4505 272.896 20.5485C272.59 20.6098 272.346 20.8305 272.174 21.1737C272.003 21.5292 271.893 21.9705 271.856 22.4854V28.4799L269.299 29.0316V16.3315L271.869 15.4121V20.1195C272.309 19.3227 272.933 18.8446 273.74 18.6729C274.352 18.5381 274.866 18.6116 275.294 18.8691C275.722 19.1265 276.004 19.5923 276.151 20.2788C276.224 20.6221 276.261 21.0144 276.273 21.4557C276.273 21.897 276.273 22.4364 276.248 23.0738C276.236 23.4661 276.224 23.8461 276.224 24.2139C276.224 24.5817 276.236 24.8636 276.285 25.072C276.334 25.3049 276.432 25.4888 276.566 25.5869C276.701 25.6972 276.897 25.7217 277.166 25.6604C277.521 25.5869 277.778 25.3907 277.937 25.0965C278.096 24.7901 278.23 24.3487 278.328 23.7726L279.075 23.6132C278.915 25.0107 278.585 26.0037 278.108 26.5676C277.631 27.1315 277.08 27.487 276.456 27.6218C275.735 27.7812 275.16 27.6954 274.744 27.3767L274.695 27.3644Z" fill="white"/>
<path d="M280.175 15.9283C279.845 15.7077 279.637 15.4135 279.551 15.0212C279.466 14.6289 279.527 14.2612 279.747 13.9302C279.955 13.5869 280.261 13.3785 280.652 13.2927C281.044 13.2069 281.411 13.2805 281.753 13.5011C282.096 13.7218 282.304 14.0282 282.39 14.4205C282.475 14.8128 282.402 15.1806 282.182 15.5115C281.961 15.8425 281.656 16.0509 281.264 16.1367C280.873 16.2226 280.506 16.149 280.175 15.9406V15.9283ZM280.677 26.1399C280.249 25.8579 279.967 25.3553 279.808 24.6443C279.747 24.3501 279.71 23.9456 279.71 23.4552V17.4607L282.267 16.909V23.2591C282.267 23.443 282.28 23.6391 282.329 23.8475C282.377 24.0804 282.475 24.2398 282.61 24.3256C282.744 24.3991 282.94 24.4114 283.209 24.3624C283.43 24.3133 283.601 24.2398 283.76 24.1295C283.833 24.7301 283.723 25.2327 283.417 25.625C283.112 26.0173 282.696 26.2747 282.194 26.3851C281.619 26.5077 281.13 26.4218 280.701 26.1399H280.677Z" fill="white"/>
<path d="M273.254 65.3882C275.639 75.5385 267.919 83.3841 257.104 84.8551C248.296 86.0565 240.784 79.3387 240.392 69.3846C240.037 60.4847 247.048 53.9263 255.832 52.6391C264.041 51.4255 271.223 56.7213 273.254 65.3882Z" fill="white"/>
<path d="M265.963 66.236C266.073 66.8857 265.938 67.5477 265.547 68.2219C265.155 68.8839 264.605 69.411 263.895 69.7911C263.589 69.9382 263.235 70.0485 262.794 70.1343C262.904 71.7525 262.684 73.2358 262.121 74.5842C261.559 75.9327 260.714 77.0482 259.577 77.9309C258.439 78.8135 257.093 79.4019 255.552 79.6716C253.778 79.9903 252.297 79.7819 251.123 79.0709C249.948 78.3477 249.226 77.2199 248.957 75.6875C248.774 74.6578 248.823 73.6035 249.104 72.5248C249.385 71.446 249.863 70.4653 250.523 69.5949C251.184 68.7245 251.979 68.0626 252.872 67.609L252.848 67.4987C252.187 67.1186 251.686 66.6773 251.343 66.1747C251 65.6721 250.768 65.0224 250.621 64.2133C250.438 63.2081 250.548 62.2029 250.951 61.2222C251.343 60.2415 251.967 59.3956 252.823 58.6969C253.667 57.9981 254.646 57.5446 255.747 57.3484C257.02 57.1278 258.133 57.2994 259.075 57.8878C260.029 58.4762 260.604 59.3221 260.8 60.4499C260.935 61.2222 260.849 61.8842 260.543 62.4358C260.237 62.9874 259.76 63.3307 259.136 63.441C258.427 63.5636 257.803 63.3797 257.277 62.8771C257.582 62.6074 257.79 62.2397 257.937 61.7738C258.072 61.308 258.109 60.8299 258.023 60.3396C257.925 59.8124 257.729 59.4324 257.411 59.175C257.093 58.9175 256.714 58.8317 256.261 58.9175C255.772 59.0033 255.344 59.273 254.964 59.7266C254.585 60.1802 254.316 60.7441 254.145 61.4183C253.986 62.0925 253.961 62.779 254.083 63.4655C254.242 64.3972 254.646 65.145 255.258 65.7089C255.882 66.2605 256.64 66.5793 257.558 66.6528L257.582 66.7631C256.738 67.0819 255.98 67.6458 255.319 68.4181C254.658 69.2026 254.181 70.0975 253.888 71.1027C253.594 72.108 253.533 73.0887 253.704 74.0448C253.875 75.0133 254.255 75.7366 254.83 76.1901C255.417 76.6437 256.127 76.8031 256.995 76.6437C257.803 76.4966 258.549 76.1411 259.259 75.5527C259.968 74.9642 260.531 74.2165 260.947 73.3093C261.363 72.4022 261.583 71.4337 261.583 70.3917C261.167 70.4653 260.751 70.6001 260.323 70.784C259.356 71.2989 258.708 71.9241 258.365 72.6596L258.292 72.7086C258.035 72.488 257.815 72.1693 257.607 71.7892C257.497 71.5808 257.411 71.3357 257.362 71.0782C257.252 70.4408 257.362 69.8278 257.729 69.2517C258.084 68.6632 258.586 68.2097 259.222 67.8909C259.723 67.6458 260.421 67.4129 261.326 67.1677C261.938 67.0206 262.452 66.8612 262.892 66.6896C263.296 66.4812 263.7 66.187 264.079 65.7947C264.458 65.4024 264.739 65.0469 264.911 64.7037H264.972C265.302 64.9243 265.571 65.2308 265.767 65.6231C265.865 65.8437 265.926 66.0521 265.963 66.2483V66.236Z" fill="#070001"/>
<path d="M232.967 77.4504C231.144 74.2264 227.51 72.7553 224.011 72.1914C222.666 72.0566 221.32 72.1179 219.974 72.2405C221.222 70.61 222.837 68.3789 223.938 66.773C225.883 64.211 227.547 61.465 229.211 58.7068C229.81 57.5299 230.863 56.5247 231.291 55.2743V55.3111C232.184 53.3374 230.508 50.996 228.33 51.4496C227.241 51.6335 224.55 52.9084 221.907 54.0362C220.17 54.6614 218.163 55.4827 214.995 56.1202C211.471 56.868 207.887 57.2725 204.302 57.6648C204.51 57.6648 204.718 57.6403 204.926 57.628C203.764 57.7629 202.528 57.579 201.39 57.8854C198.992 58.6087 199.457 62.2496 201.953 62.4212C207.813 62.2128 213.686 61.4527 219.362 59.9817C220.549 59.6507 221.724 59.2584 222.874 58.8416C222.604 59.3197 222.335 59.7978 222.054 60.2636C219.534 64.2355 216.328 68.9306 214.432 71.0391C213.747 71.8482 213.196 72.7431 212.597 73.6134C211.826 74.6922 212.12 76.3226 213.233 77.0581C213.698 77.4014 214.261 77.4995 214.823 77.4995C214.823 77.4995 214.823 77.4995 214.836 77.4995C214.921 77.4995 214.995 77.4995 215.08 77.4995C215.484 77.4872 215.9 77.4749 216.304 77.3769C216.389 77.3769 216.475 77.3769 216.561 77.3769C219.644 77.3769 222.14 77.0949 223.4 77.3156C226.03 78.1001 225.981 77.9408 227.535 78.995C227.792 79.2525 228.036 79.5344 228.269 79.8164C228.33 79.8899 228.379 79.9635 228.428 80.0493C228.428 80.0615 228.44 80.0738 228.452 80.0861C229.37 81.7655 229.162 81.3242 229.333 82.3417C229.211 84.3276 229.199 83.9108 228.954 84.8057C228.844 85.0876 228.697 85.4064 228.636 85.5289C228.55 85.6883 228.465 85.8599 228.379 86.0193C226.984 88.2504 227.119 87.993 224.941 90.0157C224.831 90.077 224.721 90.126 224.611 90.1873C224.452 90.2608 224.305 90.3221 224.195 90.3712C224.134 90.3834 224.073 90.4079 224.011 90.4202C223.351 89.9544 223.473 89.7827 221.919 88.422C220.304 86.9019 217.478 88.0542 217.356 90.2608C217.332 91.1189 217.613 91.9771 218.298 92.5287C218.849 93.1784 219.424 93.7914 220.06 94.3553C223.326 97.7755 228.208 95.1889 230.545 91.9771C232.722 89.9666 236.833 83.0036 232.955 77.4627L232.967 77.4504Z" fill="white"/>
<path d="M289.401 82.3956C289.78 77.5534 290.208 72.7112 290.282 67.8568C290.857 59.5576 291.138 51.2461 291.395 42.9347C291.42 41.5249 291.456 40.1152 291.383 38.7054C291.383 38.7054 291.383 38.7054 291.383 38.6441C291.407 38.0189 291.224 37.3692 290.722 36.9769C290.123 36.3395 288.96 36.2537 288.263 36.7685C288.165 36.8176 288.092 36.8789 288.006 36.9524C287.933 37.0137 287.859 37.0873 287.798 37.1608C287.835 37.1118 287.884 37.075 287.921 37.0382C287.505 37.4918 286.269 38.8771 286.648 38.4725C286.012 39.1713 283.785 41.7211 282.672 43.2902C281.155 45.2516 279.65 47.213 278.133 49.1744C277.521 50.0693 276.433 50.9029 276.677 52.1165C276.934 53.7592 279.246 54.2618 280.164 52.8766C282.635 49.7996 284.984 46.6859 287.248 43.9277C287.027 51.1603 286.685 58.4053 285.975 65.6134C285.78 71.044 285.254 76.4379 284.715 81.844C284.385 84.6635 288.19 85.7423 289.279 83.0821C289.352 82.8615 289.376 82.6286 289.401 82.4079V82.4324V82.3956Z" fill="white"/>
<path d="M287.8 37.1582C287.8 37.1582 287.714 37.2569 287.689 37.294C287.726 37.2446 287.763 37.2076 287.8 37.1582Z" fill="white"/>
<path d="M224.267 140.452L223.802 136.798C223.692 135.928 223.582 135.07 223.459 134.2C223.435 133.967 223.325 133.783 223.166 133.648C223.007 133.292 222.713 132.986 222.322 132.827C221.991 132.679 221.636 132.692 221.282 132.692C220.841 132.667 220.401 132.557 219.96 132.483C220.07 132.52 220.205 132.557 219.911 132.483C219.752 132.434 219.398 132.312 219.275 132.299C219.361 132.324 219.434 132.348 219.52 132.373C218.407 132.116 217.195 131.539 216.082 131.993C215.532 132.201 215.434 132.741 215.446 133.256C215.409 133.317 215.385 133.39 215.36 133.464C215.336 133.672 215.324 133.881 215.336 134.089C215.324 134.2 215.336 134.322 215.336 134.432C214.761 134.849 214.369 135.438 214.284 136.247C214.32 138.404 214.651 139.961 214.932 142.499C215.152 144.338 215.385 146.164 215.605 148.003C218.749 148.027 221.979 147.929 225.209 147.745C225.013 146.311 224.805 144.865 224.622 143.418C224.512 142.425 224.377 141.432 224.255 140.452H224.267ZM217.905 136.664C217.905 136.749 217.905 136.823 217.905 136.909C217.905 136.909 217.905 136.909 217.905 136.896C217.905 137.129 217.905 137.362 217.905 137.595C217.832 137.46 217.734 137.35 217.611 137.264C217.575 136.688 217.501 136.112 217.428 135.523C217.624 135.487 217.832 135.462 218.064 135.438C217.807 135.793 217.905 136.235 217.917 136.651L217.905 136.664ZM221.783 135.977C221.783 135.977 221.698 136.1 221.673 136.161C221.624 136.051 221.575 135.953 221.526 135.842C221.624 135.867 221.71 135.904 221.808 135.94C221.808 135.94 221.783 135.965 221.783 135.977Z" fill="white"/>
<path d="M225.038 115.197C224.732 114.474 224.536 113.702 224.157 113.015C223.631 112.072 222.97 111.177 222.163 110.466C221.282 109.853 220.377 109.227 219.337 108.896C218.236 108.529 217.11 108.173 215.948 108.259C215.471 108.284 215.043 108.504 214.651 108.762C214.088 109.093 213.538 109.509 213.208 110.098C212.926 110.564 212.792 111.103 212.608 111.606C212.486 111.924 212.302 112.243 212.363 112.599C212.363 112.648 212.376 112.709 212.388 112.758C212.217 113.089 212.106 113.444 211.984 113.788C211.727 114.646 211.617 115.528 211.519 116.399C211.397 117.024 211.348 117.649 211.299 118.287C211.226 118.838 211.152 119.378 211.177 119.942C211.25 120.886 211.311 121.842 211.642 122.737C211.85 123.497 212.302 124.146 212.755 124.772C213.171 125.286 213.636 125.752 214.088 126.23C214.517 126.733 215.03 127.138 215.63 127.407C216.499 127.689 217.428 127.775 218.309 128.02C219.104 128.118 219.924 128.057 220.707 127.959C221.808 127.652 221.637 127.469 222.273 127.26C222.701 127.199 223.13 127.064 223.448 126.758C223.864 126.365 224.169 125.887 224.536 125.446C224.904 125.09 225.271 124.71 225.479 124.244C225.748 123.656 225.968 123.031 225.968 122.369C226.017 121.707 225.907 121.033 225.882 120.371C225.821 118.618 225.723 116.84 225.014 115.21L225.038 115.197ZM217.783 118.63C217.11 118.042 216.242 117.551 216.217 116.276C216.217 116.166 216.242 115.958 216.254 115.847C216.254 115.725 216.315 115.479 216.34 115.406C216.609 115.676 216.792 115.884 216.951 116.117C216.976 116.448 217.147 116.767 217.428 116.95C217.575 117.245 217.746 117.6 217.967 118.078C218.016 118.189 218.089 118.422 218.126 118.52C218.138 118.581 218.162 118.642 218.175 118.704C218.175 118.753 218.199 118.789 218.224 118.838C218.126 118.789 218.003 118.728 217.795 118.63H217.783ZM217.808 112.807C217.526 112.586 217.22 112.427 216.927 112.341C217.012 112.219 217.086 112.121 217.147 112.072C217.171 112.059 217.196 112.047 217.233 112.035C217.282 112.035 217.318 112.035 217.367 112.035C217.759 112.035 218.187 112.145 218.615 112.317C219.056 112.66 219.239 112.954 219.484 113.432C218.958 113.15 218.395 112.93 217.808 112.795V112.807Z" fill="white"/>
<path d="M247.881 132.191L247.392 127.312C247.367 127.116 247.355 126.908 247.331 126.712C247.392 126.491 247.38 126.258 247.282 126.038C247.282 126.013 247.257 126.001 247.257 125.989C247.147 125.265 246.242 124.959 245.691 125.363C245.471 125.339 245.251 125.314 245.031 125.278C244.333 125.179 243.624 125.106 242.926 125.106C242.89 125.057 242.853 125.02 242.804 124.983C242.302 124.64 241.789 124.812 241.544 125.204C241.311 125.241 241.091 125.277 240.871 125.339C240.308 125.437 239.745 125.584 239.256 125.878C238.767 126.038 238.375 126.381 238.155 126.847C237.971 127.411 238.192 127.999 238.216 128.575C238.461 130.537 238.705 132.498 238.95 134.472C239.415 138.26 239.892 142.047 240.357 145.823C240.357 146.019 240.357 146.203 240.357 146.399C243.685 146.019 246.78 145.627 249.521 145.284C249.239 142.918 248.86 140.552 248.591 138.186C248.334 136.188 248.101 134.19 247.881 132.191ZM241.764 129.274C241.434 128.833 240.712 128.833 240.382 129.274C240.357 129.311 240.333 129.347 240.308 129.384C240.235 128.808 240.161 128.244 240.076 127.668C240.247 127.582 240.431 127.509 240.614 127.435C240.932 127.361 241.25 127.3 241.568 127.251C241.666 127.987 241.752 128.71 241.85 129.445C241.825 129.384 241.789 129.323 241.752 129.274H241.764ZM244.309 130.156C244.248 129.862 244.186 129.568 244.125 129.286C243.942 128.477 243.844 127.95 243.66 127.202C243.856 127.227 244.052 127.251 244.248 127.263C244.382 128.281 244.517 129.298 244.651 130.316C244.553 130.242 244.443 130.193 244.321 130.156H244.309Z" fill="white"/>
<path d="M248.138 114.792C247.93 113.86 247.624 112.904 247.245 111.96C247.147 111.457 247.024 110.955 246.865 110.464C246.682 109.251 246.462 108.037 245.813 107.02C245.434 106.419 244.871 105.941 244.235 105.634C243.379 104.776 242.351 104.274 241.274 104.384C240.809 104.176 240.32 104.041 239.794 104.065C237.885 104.102 236.894 106.407 236.466 107.375C236.197 108.123 236.026 108.932 235.989 109.729C235.879 110.06 235.818 110.379 235.793 110.697C235.561 110.979 235.561 111.335 235.598 111.678C235.512 113.039 235.598 113.235 235.598 114.314C235.573 116.998 237.359 119.56 238.815 120.615C239.39 121.007 240.063 121.142 240.736 121.203C240.773 121.24 240.809 121.264 240.858 121.301C241.629 121.877 242.583 122.061 243.513 121.828C244.981 121.608 245.52 121.399 246.425 120.602C246.743 120.271 247.086 119.953 247.33 119.573C247.966 119.07 248.407 118.322 248.444 117.427C248.456 116.68 248.37 115.883 248.211 115.061C248.211 114.951 248.187 114.865 248.15 114.78L248.138 114.792ZM240.944 106.529C240.846 106.468 240.748 106.407 240.663 106.358C240.76 106.284 240.858 106.211 240.968 106.137C240.993 106.162 241.017 106.174 241.042 106.198C241.042 106.382 241.103 106.566 241.201 106.726C241.115 106.652 241.042 106.591 240.944 106.529ZM244.578 115.074C244.578 115.074 244.578 115.111 244.565 115.123C244.565 115.147 244.541 115.184 244.516 115.233C244.492 115.258 244.467 115.294 244.443 115.343C244.419 115.38 244.382 115.405 244.357 115.441C244.321 115.466 244.296 115.491 244.272 115.503C244.174 115.54 244.064 115.589 243.966 115.625C243.892 115.638 243.807 115.65 243.733 115.65C243.574 115.65 243.428 115.613 243.281 115.576C243.232 115.564 243.183 115.54 243.109 115.527C243.085 115.527 243.061 115.503 243.036 115.503C243.501 115.368 243.917 115.049 244.186 114.424C244.504 113.492 244.064 112.524 243.782 111.629C243.391 110.538 242.914 109.484 242.388 108.442C242.131 107.939 241.849 107.412 241.458 106.983C241.629 107.093 241.837 107.155 242.082 107.13C243.036 108.148 243.782 109.337 244.137 110.023C244.149 110.06 244.174 110.084 244.186 110.121C244.688 111.69 244.896 113.48 244.578 115.086V115.074Z" fill="white"/>
<path d="M272.166 134.311C271.933 132.031 271.53 131.222 271.212 129.126C271.04 128.035 270.893 126.956 270.759 125.865L270.172 121.501C270.147 121.415 270.11 121.329 270.061 121.231C270.135 120.949 270.086 120.643 269.927 120.397C270.184 120.091 270.257 119.613 269.964 119.257C269.817 119.073 269.609 118.939 269.376 118.914C268.752 118.791 268.141 118.669 267.517 118.559C266.281 118.338 265.045 118.13 263.798 118.031C262.611 117.933 261.632 118.031 261.571 119.441C261.412 121.047 261.595 122.653 261.779 124.234C262.378 129.273 262.99 134.311 263.59 139.349C263.834 141.151 263.822 141.777 264.079 143.186C264.116 143.37 264.336 144.106 264.446 144.449C267.309 144.51 270.429 144.621 273.658 144.756C273.609 144.547 273.56 144.339 273.524 144.13C272.985 140.87 272.618 137.584 272.178 134.311H272.166ZM264.152 127.422C264.152 127.495 264.128 127.556 264.128 127.63C263.859 125.656 263.59 123.695 263.369 121.709C263.284 120.655 263.308 120.753 263.369 119.809C263.418 119.809 263.455 119.809 263.504 119.809C263.528 119.932 263.565 120.054 263.577 120.189C263.859 122.42 264.14 124.651 264.421 126.882C264.287 127.029 264.189 127.213 264.165 127.409L264.152 127.422ZM266.905 121.513C266.856 121.305 266.807 121.096 266.758 120.9C266.685 120.52 266.673 120.544 266.611 120.238C266.991 120.299 267.37 120.373 267.737 120.434C267.786 120.826 267.835 121.206 267.884 121.599C267.615 121.39 267.199 121.354 266.893 121.513H266.905Z" fill="white"/>
<path d="M267.785 101.148C267.125 100.388 266.134 99.7999 265.045 99.7631C261.937 98.4024 259.686 101.063 258.854 103.612C258.438 104.164 258.402 104.47 258.365 104.605C258.279 104.924 258.292 105.231 258.365 105.525C258.377 105.672 258.438 105.819 258.499 105.966C258.389 107.18 258.72 108.43 259.515 110.097C260.09 111.115 260.579 111.581 261.105 112.132C261.95 113.137 263.21 113.714 264.494 114.143C264.861 114.277 265.277 114.253 265.669 114.241C266.207 114.241 266.758 114.241 267.284 114.143C268.446 113.873 269.987 113.481 270.33 112.255C270.354 112.181 270.354 112.12 270.354 112.046C271.823 111.09 272.092 108.908 270.722 105.942C270.293 104.912 269.021 102.521 267.773 101.148H267.785ZM265.265 101.835C265.045 101.847 264.849 101.933 264.69 102.043C264.372 101.835 264.042 101.663 263.687 101.541C263.846 101.406 264.005 101.295 264.152 101.21C264.188 101.185 264.225 101.173 264.274 101.161C264.604 101.332 264.947 101.565 265.277 101.847L265.265 101.835ZM268.899 108.638C268.886 108.7 268.874 108.761 268.85 108.822C268.85 108.835 268.825 108.859 268.813 108.884C268.715 108.92 268.629 108.945 268.532 108.969C268.519 108.969 268.507 108.969 268.483 108.969C268.348 109.006 268.177 109.018 267.993 109.006C268.275 108.013 268.042 106.591 266.966 104.642C266.904 104.507 266.831 104.372 266.745 104.238C267.137 104.47 267.443 104.716 267.7 105.022C267.871 105.341 268.042 105.66 268.177 105.978C268.495 106.738 268.678 107.229 268.776 107.707C268.813 107.891 268.837 108.062 268.862 108.234C268.862 108.332 268.874 108.43 268.886 108.528C268.886 108.565 268.886 108.602 268.886 108.626L268.899 108.638Z" fill="white"/>
<path d="M295.569 144.031C295.349 143.455 295.19 142.867 295.031 142.278C294.884 141.58 294.297 138.92 293.942 136.97C294.407 137.105 294.921 137.007 295.239 136.59C295.581 136.578 295.924 136.566 296.266 136.566C298.261 136.603 298.884 136.161 298.236 134.151C297.747 132.582 297.294 131 296.743 129.456C295.985 127.507 295.153 125.594 294.419 123.633C292.926 119.967 291.593 116.241 290.051 112.588C289.892 112.195 289.538 112.012 289.195 111.999C288.901 111.276 287.788 111.055 287.348 111.864C287.152 112.171 287.189 112.563 287.115 112.906C286.944 114.096 286.809 115.285 286.724 116.474C286.699 116.756 286.675 117.025 286.65 117.307L286.454 119.575C286.43 119.833 286.418 120.09 286.393 120.335C285.733 123.51 285.084 126.698 284.607 129.909C284.521 130.363 284.583 130.89 284.986 131.147C284.986 131.147 284.986 131.172 284.986 131.184C284.888 131.454 284.791 131.736 284.705 132.006C284.338 132.116 284.093 132.508 284.142 132.9C284.142 132.986 284.167 133.06 284.179 133.146C284.216 133.366 284.228 133.587 284.265 133.808C284.203 134.163 284.167 134.519 284.142 134.874C284.105 135.438 284.02 136.075 284.375 136.554C284.558 136.799 284.901 136.983 285.182 136.97C285.794 137.093 286.283 137.056 286.895 136.97C287.066 136.934 287.311 136.921 287.617 136.897C287.874 138.956 288.18 141.028 288.375 143.1C288.449 143.835 288.522 144.571 288.571 145.306C289.232 145.319 289.88 145.331 290.528 145.343C290.492 144.791 290.455 144.24 290.394 143.688C290.161 141.408 289.868 139.128 289.538 136.848C290.272 136.836 291.079 136.811 291.886 136.774C291.948 136.774 292.009 136.774 292.07 136.774C292.107 136.946 292.143 137.13 292.156 137.301C292.315 138.282 292.523 139.251 292.706 140.231C293.012 141.727 293.306 143.235 293.795 144.669C293.893 144.89 293.954 145.147 294.064 145.368C294.639 145.368 295.19 145.368 295.753 145.355C295.753 145.343 295.777 145.319 295.777 145.306C295.973 144.89 295.728 144.46 295.581 144.056L295.569 144.031ZM295.288 131.503C295.545 132.484 295.948 133.636 296.205 134.506C295.924 134.506 295.642 134.506 295.337 134.531C295.043 132.631 294.676 130.743 294.309 128.855C294.664 129.725 294.994 130.608 295.288 131.503ZM287.299 134.359C287.25 134.47 287.25 134.58 287.262 134.703C286.87 134.727 286.699 134.752 286.271 134.813C286.295 134.604 286.308 134.445 286.332 134.298C286.491 134.224 286.626 134.102 286.699 133.918C286.736 133.82 286.748 133.722 286.748 133.636C286.87 133.636 286.981 133.611 287.091 133.575C287.164 133.771 287.25 133.979 287.348 134.188C287.348 134.188 287.348 134.188 287.348 134.2C287.323 134.249 287.311 134.31 287.286 134.372L287.299 134.359ZM289.195 134.678C289.195 134.678 289.195 134.604 289.183 134.568C289.317 134.359 289.403 134.126 289.415 133.893C289.427 133.575 289.44 133.354 289.427 133.182C289.905 133.661 290.528 133.661 291.03 133.354C291.055 133.44 291.091 133.538 291.116 133.624C291.226 133.955 291.336 134.31 291.458 134.653C290.651 134.678 289.88 134.69 289.195 134.703V134.678Z" fill="white"/>
<path d="M297.281 105.869C296.865 105.489 296.51 105.035 296.18 104.569C296.07 104.385 295.715 103.809 295.666 103.662C295.47 103.307 295.299 102.939 295.165 102.571C294.798 101.492 294.553 100.377 294.333 99.2613C294.308 99.102 294.223 98.9794 294.125 98.869C293.207 96.7238 290.821 95.5101 288.583 95.3875C287.604 95.3508 286.674 95.6818 285.879 96.2334C285.487 96.4786 285.108 96.736 284.753 97.0302C284.496 97.1528 284.252 97.2877 284.007 97.447C283.946 97.4715 283.897 97.5083 283.848 97.5451C283.811 97.5696 283.787 97.5941 283.762 97.6186C283.053 98.109 282.49 98.7464 282.368 99.6536C282.343 99.8252 282.331 100.009 282.319 100.181C282.294 100.217 282.27 100.267 282.245 100.303C281.731 101.125 281.572 101.37 281.218 101.701C280.875 101.909 280.508 102.069 280.129 102.203C279.86 102.289 279.554 102.326 279.346 102.534C279.089 102.78 278.979 103.123 279.052 103.466C279.37 104.631 280.581 104.165 281.364 103.822C281.744 103.687 282.074 103.491 282.368 103.245C282.368 103.417 282.404 103.589 282.429 103.748C282.551 104.263 282.857 104.704 283.126 105.158C283.628 106.077 284.19 106.96 284.9 107.732C285.426 108.308 286.136 108.652 286.845 108.958C287.726 109.375 288.68 109.694 289.671 109.657C290.834 109.681 291.776 108.897 292.375 107.953C292.412 107.904 292.436 107.867 292.461 107.818C292.681 107.708 292.889 107.573 293.085 107.413C293.782 106.837 294.272 106.053 294.565 105.207C294.895 105.771 295.275 106.31 295.691 106.8C296.143 107.352 296.89 108.088 297.587 107.475C298.15 106.899 297.881 106.237 297.257 105.881L297.281 105.869ZM286.221 100.34C286.699 99.4207 287.335 98.5993 287.787 98.3419C287.849 98.3664 287.922 98.3787 287.983 98.4155C288.167 98.5258 288.362 98.6239 288.558 98.7342C287.653 99.0407 286.821 99.6168 286.221 100.34ZM289.231 103.38C289.231 103.38 289.194 103.429 289.182 103.454C289.182 103.454 289.158 103.466 289.158 103.478C289.158 103.478 289.145 103.478 289.133 103.491C289.109 103.491 289.096 103.491 289.072 103.515C289.072 103.515 289.06 103.515 289.048 103.515C288.901 103.515 288.766 103.491 288.632 103.466C288.656 103.466 288.68 103.442 288.717 103.429C288.815 103.38 288.937 103.331 288.999 103.307C289.084 103.282 289.158 103.258 289.243 103.245C289.268 103.245 289.28 103.245 289.304 103.245C289.292 103.294 289.268 103.331 289.255 103.38H289.231Z" fill="white"/>
</g>
<defs>
<clipPath id="clip0_2065_15853">
<rect width="324" height="148" fill="white"/>
</clipPath>
</defs>
</svg>
