<svg width="1439" height="692" viewBox="0 0 1439 692" fill="none" xmlns="http://www.w3.org/2000/svg">
<rect y="54" width="1439" height="588" fill="white"/>
<path d="M48.9893 0C72.0844 6.51133e-05 91.4451 15.982 96.6191 37.4893C102.149 16.4943 121.264 1.01173 143.996 1.01172C167.678 1.01172 187.434 17.8153 191.994 40.1494C196.554 17.8152 216.312 1.01179 239.993 1.01172C263.676 1.01172 283.432 17.8168 287.991 40.1523C292.55 17.8166 312.309 1.01172 335.991 1.01172C359.674 1.01193 379.431 17.8169 383.989 40.1523C388.548 17.8167 408.306 1.01172 431.988 1.01172C455.671 1.01187 475.428 17.8169 479.986 40.1523C484.545 17.8167 504.303 1.01174 527.985 1.01172C551.667 1.01172 571.424 17.8153 575.983 40.1494C580.543 17.8152 600.301 1.0118 623.982 1.01172C647.665 1.01172 667.422 17.8168 671.98 40.1523C676.539 17.8166 696.298 1.01172 719.98 1.01172C743.663 1.01193 763.42 17.8169 767.979 40.1523C772.537 17.8167 792.295 1.01172 815.978 1.01172C839.66 1.01184 859.417 17.8168 863.976 40.1523C868.534 17.8167 888.292 1.01177 911.975 1.01172C934.906 1.01172 954.156 16.7676 959.493 38.0439C964.83 16.7677 984.081 1.01182 1007.01 1.01172C1030.69 1.01172 1050.45 17.8168 1055.01 40.1523C1059.57 17.8166 1079.33 1.01172 1103.01 1.01172C1126.69 1.0119 1146.45 17.8169 1151.01 40.1523C1155.57 17.8167 1175.32 1.01172 1199.01 1.01172C1222.69 1.01179 1242.45 17.8153 1247 40.1494C1251.56 17.8152 1271.32 1.01177 1295 1.01172C1318.1 1.01172 1337.46 16.9931 1342.63 38.5C1348.16 17.5047 1367.28 2.02153 1390.01 2.02148C1417.07 2.02148 1439 23.9549 1439 51.0107C1439 78.0667 1417.07 100 1390.01 100C1366.92 100 1347.55 84.0182 1342.38 62.5107C1336.85 83.5066 1317.74 98.9902 1295 98.9902C1271.32 98.9902 1251.56 82.1863 1247 59.8516C1242.45 82.1862 1222.69 98.9902 1199.01 98.9902C1175.32 98.9902 1155.57 82.1848 1151.01 59.8486C1146.45 82.1846 1126.69 98.9901 1103.01 98.9902C1079.33 98.9902 1059.57 82.1849 1055.01 59.8486C1050.45 82.1847 1030.69 98.9902 1007.01 98.9902C984.08 98.9901 964.83 83.2338 959.493 61.957C954.157 83.2339 934.906 98.9902 911.975 98.9902C888.292 98.9902 868.534 82.1848 863.976 59.8486C859.417 82.1847 839.66 98.9901 815.978 98.9902C792.295 98.9902 772.537 82.1848 767.979 59.8486C763.42 82.1846 743.663 98.99 719.98 98.9902C696.297 98.9902 676.539 82.1849 671.98 59.8486C667.422 82.1847 647.665 98.9902 623.982 98.9902C600.301 98.9902 580.543 82.1863 575.983 59.8516C571.424 82.1863 551.667 98.9902 527.985 98.9902C504.302 98.9902 484.545 82.1848 479.986 59.8486C475.428 82.1847 455.671 98.9901 431.988 98.9902C408.305 98.9902 388.548 82.1848 383.989 59.8486C379.431 82.1846 359.674 98.99 335.991 98.9902C312.308 98.9902 292.549 82.1849 287.991 59.8486C283.433 82.1847 263.676 98.9902 239.993 98.9902C216.311 98.9902 196.553 82.1863 191.994 59.8516C187.435 82.1863 167.678 98.9902 143.996 98.9902C120.9 98.9902 101.538 83.008 96.3643 61.5C90.8347 82.4952 71.721 97.9785 48.9893 97.9785C21.9334 97.9785 7.62901e-05 76.0451 0 48.9893C0 21.9333 21.9333 0 48.9893 0Z" fill="white"/>
<path d="M48.9893 592C72.0844 592 91.4451 607.982 96.6191 629.489C102.149 608.494 121.264 593.012 143.996 593.012C167.678 593.012 187.434 609.815 191.994 632.149C196.554 609.815 216.312 593.012 239.993 593.012C263.676 593.012 283.432 609.817 287.991 632.152C292.55 609.817 312.309 593.012 335.991 593.012C359.674 593.012 379.431 609.817 383.989 632.152C388.548 609.817 408.306 593.012 431.988 593.012C455.671 593.012 475.428 609.817 479.986 632.152C484.545 609.817 504.303 593.012 527.985 593.012C551.667 593.012 571.424 609.815 575.983 632.149C580.543 609.815 600.301 593.012 623.982 593.012C647.665 593.012 667.422 609.817 671.98 632.152C676.539 609.817 696.298 593.012 719.98 593.012C743.663 593.012 763.42 609.817 767.979 632.152C772.537 609.817 792.295 593.012 815.978 593.012C839.66 593.012 859.417 609.817 863.976 632.152C868.534 609.817 888.292 593.012 911.975 593.012C934.906 593.012 954.156 608.768 959.493 630.044C964.83 608.768 984.081 593.012 1007.01 593.012C1030.69 593.012 1050.45 609.817 1055.01 632.152C1059.57 609.817 1079.33 593.012 1103.01 593.012C1126.69 593.012 1146.45 609.817 1151.01 632.152C1155.57 609.817 1175.32 593.012 1199.01 593.012C1222.69 593.012 1242.45 609.815 1247 632.149C1251.56 609.815 1271.32 593.012 1295 593.012C1318.1 593.012 1337.46 608.993 1342.63 630.5C1348.16 609.505 1367.28 594.022 1390.01 594.021C1417.07 594.021 1439 615.955 1439 643.011C1439 670.067 1417.07 692 1390.01 692C1366.92 692 1347.55 676.018 1342.38 654.511C1336.85 675.507 1317.74 690.99 1295 690.99C1271.32 690.99 1251.56 674.186 1247 651.852C1242.45 674.186 1222.69 690.99 1199.01 690.99C1175.32 690.99 1155.57 674.185 1151.01 651.849C1146.45 674.185 1126.69 690.99 1103.01 690.99C1079.33 690.99 1059.57 674.185 1055.01 651.849C1050.45 674.185 1030.69 690.99 1007.01 690.99C984.08 690.99 964.83 675.234 959.493 653.957C954.157 675.234 934.906 690.99 911.975 690.99C888.292 690.99 868.534 674.185 863.976 651.849C859.417 674.185 839.66 690.99 815.978 690.99C792.295 690.99 772.537 674.185 767.979 651.849C763.42 674.185 743.663 690.99 719.98 690.99C696.297 690.99 676.539 674.185 671.98 651.849C667.422 674.185 647.665 690.99 623.982 690.99C600.301 690.99 580.543 674.186 575.983 651.852C571.424 674.186 551.667 690.99 527.985 690.99C504.302 690.99 484.545 674.185 479.986 651.849C475.428 674.185 455.671 690.99 431.988 690.99C408.305 690.99 388.548 674.185 383.989 651.849C379.431 674.185 359.674 690.99 335.991 690.99C312.308 690.99 292.549 674.185 287.991 651.849C283.433 674.185 263.676 690.99 239.993 690.99C216.311 690.99 196.553 674.186 191.994 651.852C187.435 674.186 167.678 690.99 143.996 690.99C120.9 690.99 101.538 675.008 96.3643 653.5C90.8347 674.495 71.721 689.978 48.9893 689.979C21.9334 689.979 7.62901e-05 668.045 0 640.989C0 613.933 21.9333 592 48.9893 592Z" fill="white"/>
</svg>
