<svg width="491" height="363" viewBox="0 0 491 363" fill="none" xmlns="http://www.w3.org/2000/svg">
<path d="M466 0C479.807 0 491 11.1929 491 25C491 38.8071 479.807 50 466 50C453.904 50 443.815 41.4097 441.5 29.9971C439.185 41.4097 429.096 50 417 50C404.904 50 394.815 41.4097 392.5 29.9971C390.185 41.4097 380.096 50 368 50C355.904 50 345.815 41.4097 343.5 29.9971C341.185 41.4097 331.096 50 319 50C306.904 50 296.815 41.4097 294.5 29.9971C292.185 41.4097 282.096 50 270 50C257.904 50 247.815 41.4097 245.5 29.9971C243.185 41.4097 233.096 50 221 50C208.904 50 198.815 41.4097 196.5 29.9971C194.185 41.4097 184.096 50 172 50C159.904 50 149.815 41.4097 147.5 29.9971C145.185 41.4097 135.096 50 123 50C110.904 50 100.815 41.4097 98.5 29.9971C96.1847 41.4097 86.0958 50 74 50C61.9042 50 51.8153 41.4097 49.5 29.9971C47.1847 41.4097 37.0958 50 25 50C11.1929 50 0 38.8071 0 25C0 11.1929 11.1929 0 25 0C37.0955 0 47.1844 8.58981 49.5 20.002C51.8156 8.58981 61.9045 0 74 0C86.0955 0 96.1844 8.58981 98.5 20.002C100.816 8.58981 110.905 0 123 0C135.095 0 145.184 8.58981 147.5 20.002C149.816 8.58981 159.905 0 172 0C184.095 0 194.184 8.58981 196.5 20.002C198.816 8.58981 208.905 0 221 0C233.095 0 243.184 8.58981 245.5 20.002C247.816 8.58981 257.905 0 270 0C282.095 0 292.184 8.58981 294.5 20.002C296.816 8.58981 306.905 0 319 0C331.095 0 341.184 8.58981 343.5 20.002C345.816 8.58981 355.905 0 368 0C380.095 0 390.184 8.58981 392.5 20.002C394.816 8.58981 404.905 0 417 0C429.095 0 439.184 8.58981 441.5 20.002C443.816 8.58981 453.905 0 466 0Z" fill="#FFEB35"/>
<path d="M466 313C479.807 313 491 324.193 491 338C491 351.807 479.807 363 466 363C453.904 363 443.815 354.41 441.5 342.997C439.185 354.41 429.096 363 417 363C404.904 363 394.815 354.41 392.5 342.997C390.185 354.41 380.096 363 368 363C355.904 363 345.815 354.41 343.5 342.997C341.185 354.41 331.096 363 319 363C306.904 363 296.815 354.41 294.5 342.997C292.185 354.41 282.096 363 270 363C257.904 363 247.815 354.41 245.5 342.997C243.185 354.41 233.096 363 221 363C208.904 363 198.815 354.41 196.5 342.997C194.185 354.41 184.096 363 172 363C159.904 363 149.815 354.41 147.5 342.997C145.185 354.41 135.096 363 123 363C110.904 363 100.815 354.41 98.5 342.997C96.1847 354.41 86.0958 363 74 363C61.9042 363 51.8153 354.41 49.5 342.997C47.1847 354.41 37.0958 363 25 363C11.1929 363 0 351.807 0 338C0 324.193 11.1929 313 25 313C37.0955 313 47.1844 321.59 49.5 333.002C51.8156 321.59 61.9045 313 74 313C86.0955 313 96.1844 321.59 98.5 333.002C100.816 321.59 110.905 313 123 313C135.095 313 145.184 321.59 147.5 333.002C149.816 321.59 159.905 313 172 313C184.095 313 194.184 321.59 196.5 333.002C198.816 321.59 208.905 313 221 313C233.095 313 243.184 321.59 245.5 333.002C247.816 321.59 257.905 313 270 313C282.095 313 292.184 321.59 294.5 333.002C296.816 321.59 306.905 313 319 313C331.095 313 341.184 321.59 343.5 333.002C345.816 321.59 355.905 313 368 313C380.095 313 390.184 321.59 392.5 333.002C394.816 321.59 404.905 313 417 313C429.095 313 439.184 321.59 441.5 333.002C443.816 321.59 453.905 313 466 313Z" fill="#FFEB35"/>
<rect y="25" width="491" height="313" fill="white"/>
</svg>
