<svg width="393" height="1850" viewBox="0 0 393 1850" fill="none" xmlns="http://www.w3.org/2000/svg">
<rect y="25" width="393" height="1800" fill="#FEF643"/>
<circle cx="85" cy="1284" r="85" fill="#FFEB35"/>
<circle cx="308" cy="1312" r="85" fill="#FFEB35"/>
<circle cx="347" cy="1199" r="46" fill="#FFEB35"/>
<path d="M368 0C381.807 0 393 11.1929 393 25C393 38.8071 381.807 50 368 50C355.904 50 345.815 41.4097 343.5 29.9971C341.185 41.4097 331.096 50 319 50C306.904 50 296.815 41.4097 294.5 29.9971C292.185 41.4097 282.096 50 270 50C257.904 50 247.815 41.4097 245.5 29.9971C243.185 41.4097 233.096 50 221 50C208.904 50 198.815 41.4097 196.5 29.9971C194.185 41.4097 184.096 50 172 50C159.904 50 149.815 41.4097 147.5 29.9971C145.185 41.4097 135.096 50 123 50C110.904 50 100.815 41.4097 98.5 29.9971C96.1847 41.4097 86.0958 50 74 50C61.9042 50 51.8153 41.4097 49.5 29.9971C47.1847 41.4097 37.0958 50 25 50C11.1929 50 0 38.8071 0 25C0 11.1929 11.1929 0 25 0C37.0955 0 47.1844 8.58981 49.5 20.002C51.8156 8.58981 61.9045 0 74 0C86.0955 0 96.1844 8.58981 98.5 20.002C100.816 8.58981 110.905 0 123 0C135.095 0 145.184 8.58981 147.5 20.002C149.816 8.58981 159.905 0 172 0C184.095 0 194.184 8.58981 196.5 20.002C198.816 8.58981 208.905 0 221 0C233.095 0 243.184 8.58981 245.5 20.002C247.816 8.58981 257.905 0 270 0C282.095 0 292.184 8.58981 294.5 20.002C296.816 8.58981 306.905 0 319 0C331.095 0 341.184 8.58981 343.5 20.002C345.816 8.58981 355.905 0 368 0Z" fill="#FEF643"/>
<path d="M368 1800C381.807 1800 393 1811.19 393 1825C393 1838.81 381.807 1850 368 1850C355.904 1850 345.815 1841.41 343.5 1830C341.185 1841.41 331.096 1850 319 1850C306.904 1850 296.815 1841.41 294.5 1830C292.185 1841.41 282.096 1850 270 1850C257.904 1850 247.815 1841.41 245.5 1830C243.185 1841.41 233.096 1850 221 1850C208.904 1850 198.815 1841.41 196.5 1830C194.185 1841.41 184.096 1850 172 1850C159.904 1850 149.815 1841.41 147.5 1830C145.185 1841.41 135.096 1850 123 1850C110.904 1850 100.815 1841.41 98.5 1830C96.1847 1841.41 86.0958 1850 74 1850C61.9042 1850 51.8153 1841.41 49.5 1830C47.1847 1841.41 37.0958 1850 25 1850C11.1929 1850 0 1838.81 0 1825C0 1811.19 11.1929 1800 25 1800C37.0955 1800 47.1844 1808.59 49.5 1820C51.8156 1808.59 61.9045 1800 74 1800C86.0955 1800 96.1844 1808.59 98.5 1820C100.816 1808.59 110.905 1800 123 1800C135.095 1800 145.184 1808.59 147.5 1820C149.816 1808.59 159.905 1800 172 1800C184.095 1800 194.184 1808.59 196.5 1820C198.816 1808.59 208.905 1800 221 1800C233.095 1800 243.184 1808.59 245.5 1820C247.816 1808.59 257.905 1800 270 1800C282.095 1800 292.184 1808.59 294.5 1820C296.816 1808.59 306.905 1800 319 1800C331.095 1800 341.184 1808.59 343.5 1820C345.816 1808.59 355.905 1800 368 1800Z" fill="#FEF643"/>
</svg>
