<svg width="1499" height="1307" viewBox="0 0 1499 1307" fill="none" xmlns="http://www.w3.org/2000/svg">
<path d="M1449 0C1476.61 0 1499 22.3858 1499 50V1307H0V50C0 22.3858 22.3858 0 50 0C77.6142 0 100 22.3858 100 50C100 22.3858 122.386 0 150 0C177.614 0 200 22.3858 200 50C200 22.3858 222.386 0 250 0C277.614 0 300 22.3858 300 50C300 22.3858 322.386 0 350 0C377.614 0 400 22.3858 400 50C400 22.3858 422.386 0 450 0C477.614 0 500 22.3858 500 50C500 22.3858 522.386 0 550 0C577.614 0 600 22.3858 600 50C600 22.3858 622.386 0 650 0C677.614 0 700 22.3858 700 50C700 22.3858 722.386 0 750 0C777.614 0 800 22.3858 800 50C800 22.3858 822.386 0 850 0C877.614 0 900 22.3858 900 50C900 22.3858 922.386 0 950 0C975.206 0 996.056 18.6522 999.5 42.9072C1002.94 18.6522 1023.79 0 1049 0C1076.61 0 1099 22.3858 1099 50C1099 22.3858 1121.39 0 1149 0C1176.61 0 1199 22.3858 1199 50C1199 22.3858 1221.39 0 1249 0C1276.61 0 1299 22.3858 1299 50C1299 22.3858 1321.39 0 1349 0C1376.61 0 1399 22.3858 1399 50C1399 22.3858 1421.39 0 1449 0Z" fill="#FEF643"/>
</svg>
