<svg width="408" height="329" viewBox="0 0 408 329" fill="none" xmlns="http://www.w3.org/2000/svg">
<path d="M150.727 98.0684V93.1593H151.293V94.9714H151.341C151.382 94.9075 151.44 94.826 151.513 94.7269C151.588 94.6262 151.696 94.5368 151.835 94.4585C151.975 94.3786 152.165 94.3386 152.405 94.3386C152.715 94.3386 152.988 94.4161 153.225 94.5711C153.461 94.7261 153.646 94.9458 153.779 95.2303C153.911 95.5147 153.978 95.8503 153.978 96.237C153.978 96.627 153.911 96.9649 153.779 97.251C153.646 97.5354 153.462 97.7559 153.227 97.9126C152.992 98.0676 152.721 98.1451 152.415 98.1451C152.178 98.1451 151.989 98.1059 151.847 98.0276C151.704 97.9477 151.595 97.8574 151.518 97.7567C151.441 97.6545 151.382 97.5698 151.341 97.5027H151.274V98.0684H150.727ZM151.283 96.2275C151.283 96.5055 151.324 96.7508 151.406 96.9633C151.487 97.1743 151.606 97.3397 151.763 97.4595C151.919 97.5778 152.111 97.6369 152.338 97.6369C152.574 97.6369 152.772 97.5746 152.93 97.4499C153.09 97.3237 153.21 97.1543 153.29 96.9418C153.371 96.7276 153.412 96.4895 153.412 96.2275C153.412 95.9686 153.372 95.7353 153.292 95.5275C153.214 95.3182 153.095 95.1528 152.935 95.0313C152.777 94.9083 152.578 94.8468 152.338 94.8468C152.108 94.8468 151.914 94.9051 151.758 95.0218C151.601 95.1368 151.483 95.2982 151.403 95.5059C151.323 95.7121 151.283 95.9526 151.283 96.2275ZM156.387 98.1451C156.032 98.1451 155.726 98.0668 155.468 97.9102C155.213 97.752 155.015 97.5314 154.876 97.2486C154.739 96.9641 154.67 96.6333 154.67 96.2562C154.67 95.8791 154.739 95.5467 154.876 95.2591C155.015 94.9698 155.209 94.7445 155.456 94.5831C155.706 94.4201 155.997 94.3386 156.329 94.3386C156.521 94.3386 156.71 94.3706 156.897 94.4345C157.084 94.4984 157.254 94.6023 157.408 94.7461C157.561 94.8883 157.683 95.0769 157.774 95.3118C157.865 95.5467 157.911 95.8359 157.911 96.1795V96.4192H155.073V95.9302H157.336C157.336 95.7225 157.294 95.5371 157.211 95.3741C157.13 95.2111 157.013 95.0825 156.861 94.9882C156.711 94.8939 156.534 94.8468 156.329 94.8468C156.104 94.8468 155.909 94.9027 155.744 95.0146C155.581 95.1248 155.456 95.2686 155.368 95.446C155.28 95.6234 155.236 95.8136 155.236 96.0165V96.3425C155.236 96.6206 155.284 96.8563 155.38 97.0496C155.477 97.2414 155.612 97.3876 155.785 97.4883C155.957 97.5874 156.158 97.6369 156.387 97.6369C156.535 97.6369 156.669 97.6161 156.789 97.5746C156.911 97.5314 157.015 97.4675 157.103 97.3828C157.191 97.2965 157.259 97.1895 157.307 97.0616L157.853 97.215C157.796 97.4004 157.699 97.5634 157.563 97.704C157.428 97.843 157.26 97.9517 157.06 98.03C156.86 98.1067 156.636 98.1451 156.387 98.1451ZM159.337 95.8535V98.0684H158.772V94.3865H159.318V94.9618H159.366C159.452 94.7749 159.583 94.6246 159.759 94.5112C159.935 94.3961 160.162 94.3386 160.44 94.3386C160.689 94.3386 160.907 94.3897 161.094 94.492C161.281 94.5927 161.427 94.7461 161.531 94.9522C161.634 95.1568 161.686 95.4157 161.686 95.7289V98.0684H161.121V95.7672C161.121 95.478 161.046 95.2527 160.895 95.0913C160.745 94.9283 160.539 94.8468 160.277 94.8468C160.096 94.8468 159.935 94.8859 159.793 94.9642C159.652 95.0425 159.541 95.1568 159.459 95.307C159.378 95.4572 159.337 95.6394 159.337 95.8535ZM164.216 98.1451C163.871 98.1451 163.573 98.0636 163.324 97.9006C163.075 97.7376 162.883 97.5131 162.749 97.227C162.615 96.941 162.547 96.6142 162.547 96.2466C162.547 95.8727 162.616 95.5427 162.754 95.2567C162.893 94.969 163.086 94.7445 163.334 94.5831C163.583 94.4201 163.874 94.3386 164.206 94.3386C164.465 94.3386 164.698 94.3865 164.906 94.4824C165.114 94.5783 165.284 94.7125 165.417 94.8851C165.549 95.0577 165.632 95.2591 165.664 95.4892H165.098C165.055 95.3214 164.959 95.1728 164.81 95.0433C164.663 94.9123 164.465 94.8468 164.216 94.8468C163.995 94.8468 163.802 94.9043 163.636 95.0194C163.471 95.1328 163.342 95.2934 163.25 95.5012C163.159 95.7073 163.113 95.9494 163.113 96.2275C163.113 96.5119 163.158 96.7596 163.247 96.9705C163.338 97.1815 163.466 97.3453 163.631 97.4619C163.797 97.5786 163.992 97.6369 164.216 97.6369C164.363 97.6369 164.496 97.6113 164.616 97.5602C164.736 97.5091 164.837 97.4355 164.92 97.3397C165.004 97.2438 165.063 97.1287 165.098 96.9945H165.664C165.632 97.2118 165.553 97.4076 165.426 97.5818C165.302 97.7544 165.136 97.8918 164.93 97.9941C164.726 98.0947 164.487 98.1451 164.216 98.1451ZM167.056 95.8535V98.0684H166.491V93.1593H167.056V94.9618H167.104C167.19 94.7717 167.32 94.6206 167.492 94.5088C167.667 94.3953 167.898 94.3386 168.188 94.3386C168.439 94.3386 168.658 94.3889 168.847 94.4896C169.035 94.5887 169.182 94.7413 169.285 94.9474C169.391 95.152 169.444 95.4125 169.444 95.7289V98.0684H168.878V95.7672C168.878 95.4748 168.802 95.2487 168.65 95.0889C168.5 94.9275 168.291 94.8468 168.025 94.8468C167.839 94.8468 167.673 94.8859 167.526 94.9642C167.381 95.0425 167.266 95.1568 167.181 95.307C167.098 95.4572 167.056 95.6394 167.056 95.8535Z" fill="#231815"/>
<path d="M147.842 271.033C147.618 256.399 147.911 194.455 157.78 183.595C167.65 172.735 181.98 160.935 191.522 151.015C201.064 141.096 204.646 136.858 226.727 129.295C248.808 121.747 281.034 110.41 291.764 103.338C302.512 96.2524 310.263 92.0147 322.199 86.3463C334.135 80.6779 406.94 30.2754 406.94 30.2754" stroke="#595757" stroke-width="1.88" stroke-miterlimit="10" stroke-linecap="round"/>
<path d="M147.842 271.033C147.618 256.399 147.911 194.455 157.78 183.595C167.65 172.735 181.98 160.935 191.522 151.015C201.064 141.096 204.646 136.858 226.727 129.295C248.808 121.747 281.034 110.41 291.764 103.338C302.512 96.2524 310.263 92.0147 322.199 86.3463C334.135 80.6779 406.94 30.2754 406.94 30.2754" stroke="white" stroke-width="1.41" stroke-miterlimit="10" stroke-dasharray="4.23 4.23"/>
<path d="M0.939941 6.11523L212.862 270.568" stroke="#595757" stroke-width="1.88" stroke-miterlimit="10" stroke-linecap="round"/>
<path d="M0.939941 6.11523L215.359 273.675" stroke="white" stroke-width="1.41" stroke-miterlimit="10" stroke-dasharray="4.23 4.23"/>
<path d="M239.421 5.77539C239.421 5.77539 261.829 47.0758 267.633 57.7994C273.438 68.5231 281.24 80.0779 285.736 84.7107C290.231 89.3436 301.995 101.266 301.995 101.266" stroke="#727171" stroke-width="6.77" stroke-linejoin="round"/>
<path d="M334.806 75.4322C339.577 80.1876 338.561 87.1778 332.55 90.9522L288.801 118.436C282.79 122.21 273.954 121.406 269.183 116.651C264.412 111.895 265.429 104.905 271.44 101.131L315.188 73.6472C321.199 69.8728 330.035 70.6767 334.806 75.4322Z" fill="#231815"/>
<path d="M274.134 105.555L274.799 105.289C275.001 105.659 275.175 106.034 275.321 106.412C275.463 106.787 275.572 107.152 275.647 107.508C275.727 107.861 275.771 108.193 275.777 108.505C275.713 108.505 275.632 108.509 275.534 108.517C275.437 108.524 275.339 108.535 275.241 108.55C275.148 108.561 275.068 108.574 275.002 108.589C275.022 108.287 274.998 107.97 274.929 107.637C274.862 107.296 274.76 106.95 274.625 106.598C274.49 106.239 274.327 105.891 274.134 105.555ZM274.976 106.599L280.013 103.435L280.466 103.886L275.266 107.153L274.976 106.599ZM275.703 109.287L282.365 105.103L282.824 105.561L276.163 109.745L275.703 109.287ZM275.747 104.27L276.333 103.902L282.036 109.584L281.45 109.952L275.747 104.27ZM282.156 100.244L282.868 99.9887C283.134 100.527 283.344 101.07 283.499 101.618C283.655 102.159 283.752 102.686 283.791 103.199C283.836 103.709 283.814 104.193 283.726 104.652C283.663 104.637 283.579 104.63 283.473 104.629C283.372 104.625 283.269 104.622 283.163 104.622C283.054 104.617 282.962 104.617 282.887 104.624C283 104.19 283.042 103.73 283.014 103.244C282.991 102.754 282.904 102.258 282.753 101.754C282.603 101.244 282.404 100.74 282.156 100.244ZM286.596 101.679C287.157 101.965 287.752 102.196 288.381 102.373C289.009 102.549 289.643 102.658 290.282 102.7C290.922 102.735 291.536 102.692 292.124 102.572C292.113 102.633 292.105 102.705 292.1 102.788C292.1 102.869 292.103 102.948 292.108 103.025C292.113 103.103 292.121 103.175 292.132 103.242C291.5 103.343 290.849 103.366 290.179 103.309C289.506 103.249 288.833 103.12 288.16 102.924C287.489 102.721 286.84 102.46 286.213 102.141L286.596 101.679ZM282.932 101.39L285.328 99.885L285.799 100.355L283.136 102.028L282.932 101.39ZM285.127 100.011L285.239 99.9409L285.325 99.8463L285.873 99.7539C286.428 100.676 286.79 101.571 286.959 102.439C287.125 103.303 287.13 104.123 286.974 104.899C286.823 105.673 286.55 106.385 286.156 107.037C286.085 107.014 285.997 106.991 285.894 106.969C285.795 106.95 285.689 106.933 285.576 106.917C285.472 106.901 285.383 106.897 285.308 106.903C285.724 106.273 286.014 105.593 286.178 104.865C286.347 104.134 286.361 103.369 286.221 102.57C286.076 101.767 285.747 100.949 285.233 100.116L285.127 100.011ZM293.646 96.4843L294.203 96.1348L297.783 99.7024L297.227 100.052L293.646 96.4843ZM292.392 98.7538L297.199 95.7344L297.627 96.161L292.821 99.1804L292.392 98.7538ZM295.452 97.1143C295.848 97.2685 296.28 97.3936 296.748 97.4898C297.211 97.5818 297.678 97.6414 298.149 97.6684C298.615 97.6913 299.044 97.6807 299.435 97.6366C299.424 97.6903 299.415 97.7569 299.406 97.8364C299.398 97.9087 299.394 97.9815 299.395 98.0548C299.396 98.1281 299.402 98.1946 299.414 98.2545C298.993 98.277 298.535 98.2623 298.04 98.2106C297.549 98.1558 297.055 98.0694 296.558 97.9516C296.061 97.8338 295.594 97.6902 295.158 97.5206L295.452 97.1143ZM294.569 97.6084L295.143 97.4695C295.26 97.8596 295.332 98.2683 295.358 98.6956C295.379 99.1189 295.356 99.5334 295.288 99.9393C295.22 100.338 295.11 100.703 294.958 101.033C294.887 101.011 294.807 100.991 294.717 100.973C294.631 100.96 294.543 100.948 294.452 100.938C294.362 100.921 294.28 100.912 294.206 100.911C294.374 100.604 294.502 100.261 294.59 99.8833C294.679 99.5053 294.719 99.1201 294.713 98.7278C294.711 98.3324 294.663 97.9593 294.569 97.6084ZM291.142 95.7487L292.284 96.8864L295.043 95.153L293.902 94.0153L291.142 95.7487ZM290.192 95.67L294.042 93.2516L296.022 95.224L292.172 97.6423L290.192 95.67ZM289.155 95.8778L289.811 95.6877C289.995 96.1365 290.146 96.5997 290.262 97.0775C290.379 97.5553 290.458 98.0233 290.499 98.4817C290.539 98.94 290.539 99.37 290.499 99.7717C290.447 99.7439 290.372 99.7136 290.275 99.6807C290.182 99.6447 290.085 99.6119 289.982 99.5821C289.885 99.5493 289.8 99.5252 289.728 99.5098C289.777 99.1566 289.787 98.7772 289.759 98.3715C289.727 97.9617 289.661 97.5463 289.561 97.1253C289.461 96.697 289.326 96.2812 289.155 95.8778ZM289.985 97.9576L290.063 97.1925L290.084 97.1893L294.59 101.678L294.056 102.014L289.985 97.9576ZM298.73 90.2464L299.249 89.9202L301.608 92.2697C301.847 92.5088 302.094 92.7705 302.347 93.055C302.601 93.3395 302.836 93.6384 303.054 93.9519C303.277 94.2622 303.464 94.5814 303.616 94.9094C303.764 95.2333 303.854 95.5599 303.886 95.8892C303.827 95.879 303.752 95.876 303.659 95.8803C303.576 95.8857 303.49 95.8925 303.402 95.901C303.322 95.9104 303.252 95.9208 303.191 95.9323C303.16 95.5153 303.03 95.1093 302.803 94.7143C302.576 94.3193 302.308 93.9435 301.998 93.5868C301.689 93.223 301.386 92.8926 301.088 92.5959L298.73 90.2464ZM302.693 91.5073C303.18 91.8801 303.67 92.2075 304.162 92.4895C304.651 92.7673 305.138 92.9791 305.622 93.1248C306.107 93.2705 306.583 93.3311 307.051 93.3064C307.04 93.3602 307.031 93.4231 307.022 93.4954C307.019 93.5718 307.017 93.6467 307.018 93.72C307.024 93.7902 307.035 93.8573 307.051 93.9212C306.531 93.9253 306.006 93.8447 305.478 93.6795C304.949 93.5143 304.417 93.2773 303.881 92.9685C303.351 92.6567 302.812 92.2928 302.265 91.8767L302.693 91.5073ZM298.997 90.0786L301.623 88.4291L304.167 90.9641L301.541 92.6136L301.107 92.1808L303.221 90.8528L301.539 89.1772L299.425 90.5052L298.997 90.0786ZM296.617 93.1059L298.946 91.6428L299.319 92.0138L296.99 93.4769L296.617 93.1059ZM297.554 94.0395L299.883 92.5764L300.25 92.9412L297.92 94.4043L297.554 94.0395ZM298.223 95.1517L300.753 93.5628L301.131 93.94L298.602 95.5289L298.223 95.1517ZM296.818 91.8001L297.286 91.5065L300.091 94.3012L299.623 94.5947L296.818 91.8001ZM300.477 94.8549L300.656 94.6114C300.874 94.676 301.097 94.7577 301.325 94.8564C301.558 94.952 301.748 95.0409 301.895 95.1232L301.713 95.3992C301.566 95.3097 301.377 95.2171 301.144 95.1215C300.912 95.0187 300.689 94.9298 300.477 94.8549ZM300.048 95.2955L300.281 95.0689C300.508 95.1749 300.746 95.304 300.996 95.4563C301.242 95.6045 301.438 95.7399 301.585 95.8625L301.343 96.1154C301.192 95.9887 300.996 95.8497 300.755 95.6984C300.51 95.5429 300.275 95.4086 300.048 95.2955ZM299.562 95.7021L299.82 95.4895C300.041 95.646 300.268 95.8231 300.498 96.0209C300.734 96.2156 300.926 96.3908 301.074 96.5464L300.813 96.7807C300.661 96.621 300.47 96.4422 300.239 96.2444C300.004 96.0425 299.778 95.8617 299.562 95.7021ZM298.911 95.9093L299.302 95.7444C299.482 95.9402 299.653 96.1423 299.813 96.3505C299.979 96.5557 300.117 96.7578 300.228 96.9568C300.339 97.1558 300.401 97.3457 300.413 97.5263L299.946 97.5675C299.922 97.327 299.81 97.0619 299.607 96.7721C299.401 96.4783 299.169 96.1907 298.911 95.9093ZM295.399 92.3385L298.152 90.6098L298.543 90.9993L296.273 92.4252L298.891 95.0344L298.409 95.3372L295.399 92.3385ZM300.56 93.684L301.042 93.3811C301.042 93.3811 301.062 93.4053 301.103 93.4538C301.148 93.4991 301.185 93.5398 301.213 93.5759C301.696 94.1057 302.076 94.536 302.352 94.8669C302.632 95.1947 302.831 95.4529 302.948 95.6416C303.065 95.8231 303.123 95.965 303.121 96.0672C303.124 96.1591 303.104 96.2355 303.061 96.2965C303.021 96.3616 302.961 96.4262 302.881 96.4904C302.815 96.5452 302.718 96.6094 302.59 96.683C302.466 96.7606 302.336 96.8393 302.198 96.9191C302.135 96.8645 302.054 96.8078 301.955 96.7492C301.865 96.6915 301.776 96.6468 301.687 96.6149C301.833 96.5434 301.96 96.4771 302.068 96.416C302.181 96.3518 302.262 96.3042 302.312 96.2731C302.361 96.242 302.397 96.2094 302.419 96.1753C302.445 96.1453 302.457 96.1082 302.452 96.0638C302.455 95.9946 302.402 95.877 302.292 95.711C302.177 95.5408 301.988 95.3001 301.724 94.9888C301.461 94.6703 301.096 94.258 300.628 93.752L300.56 93.684Z" fill="white"/>
<path d="M41.9846 58.7798C38.7809 60.3468 34.5266 59.5565 32.5459 57.0084L18.1296 38.5316C16.1488 35.9971 17.1478 32.6315 20.3686 31.0645C23.5723 29.4975 27.8266 30.2879 29.8073 32.8359L44.2236 51.3128C46.2044 53.8472 45.2054 57.2128 41.9846 58.7798Z" fill="#231815"/>
<path d="M28.1588 34.3869L28.3771 34.6665L25.2209 36.2087C25.1133 36.2612 25.0225 36.2865 24.9485 36.2845C24.8745 36.2825 24.8014 36.2562 24.7293 36.2056C24.6553 36.1527 24.5713 36.073 24.4772 35.9663C24.3849 35.862 24.2771 35.7286 24.154 35.5662C24.1766 35.5488 24.2022 35.5236 24.2308 35.4905C24.2585 35.4611 24.2854 35.4305 24.3113 35.3987C24.3373 35.367 24.3593 35.3371 24.3774 35.3092C24.4412 35.3957 24.5037 35.478 24.5648 35.5563C24.6233 35.6358 24.6763 35.7037 24.7238 35.76C24.7706 35.8198 24.8029 35.8612 24.8209 35.8842C24.8504 35.9175 24.8772 35.9378 24.9011 35.9452C24.9294 35.9536 24.9632 35.9482 25.0026 35.929L28.1588 34.3869ZM27.8048 35.7093L28.1051 35.9059C28.0023 36.0992 27.8819 36.2932 27.7439 36.4878C27.6059 36.6824 27.4629 36.8636 27.3147 37.0314C27.1684 37.2014 27.0283 37.3399 26.8942 37.4467L26.546 37.2305C26.6837 37.1283 26.8274 36.9944 26.9773 36.829C27.1317 36.6645 27.2791 36.4844 27.4198 36.2885C27.5648 36.0936 27.6932 35.9005 27.8048 35.7093ZM26.5278 33.9342L26.6991 34.2511C26.477 34.3056 26.2373 34.356 25.9798 34.4022C25.725 34.4473 25.4678 34.4776 25.2081 34.4931C24.9511 34.5074 24.7078 34.4975 24.4782 34.4635C24.4804 34.4338 24.479 34.3995 24.474 34.3606C24.4734 34.3227 24.4698 34.2832 24.463 34.242C24.458 34.2031 24.4517 34.1696 24.4443 34.1414C24.6642 34.177 24.8969 34.1873 25.1425 34.1723C25.3881 34.1572 25.6299 34.1281 25.868 34.0849C26.1105 34.0427 26.3304 33.9925 26.5278 33.9342ZM26.9818 38.1718L28.9494 40.6921L28.6503 40.8382L26.6827 38.3179L26.9818 38.1718ZM28.3921 37.4922L30.3543 40.0056L30.0592 40.1498L28.097 37.6364L28.3921 37.4922ZM29.6485 36.6781L31.8317 39.4746L28.5181 41.0936L28.3105 40.8278L31.3368 39.3491L29.5606 37.0739L26.5343 38.5526L26.3349 38.2971L29.6485 36.6781ZM30.4823 37.9829L30.6871 38.2453L27.893 39.6105L27.6882 39.3481L30.4823 37.9829ZM32.3203 40.0657L32.6448 40.1123C32.661 40.1934 32.6724 40.28 32.6791 40.3721C32.6884 40.463 32.6924 40.5516 32.6911 40.6381C32.6924 40.7233 32.6851 40.7953 32.6692 40.8539L32.3118 40.8139C32.3277 40.7553 32.3385 40.6832 32.3442 40.5977C32.35 40.5123 32.3508 40.4228 32.3468 40.3294C32.3427 40.236 32.3339 40.1481 32.3203 40.0657ZM31.1379 40.4383L31.4688 40.4722C31.4939 40.5554 31.5142 40.644 31.5297 40.7382C31.5452 40.8323 31.5549 40.9214 31.5588 41.0053C31.5645 41.0916 31.5626 41.1657 31.553 41.2276L31.197 41.1964C31.2084 41.1368 31.2126 41.0632 31.2095 40.9757C31.2082 40.8905 31.2011 40.8001 31.1882 40.7047C31.1771 40.6116 31.1604 40.5228 31.1379 40.4383ZM29.0982 41.5303C29.2347 41.5241 29.3922 41.5123 29.5708 41.495C29.7512 41.48 29.9394 41.4611 30.1355 41.4384C30.3343 41.4145 30.5229 41.3891 30.7013 41.3623L30.7095 41.6445C30.5444 41.6743 30.3681 41.7016 30.1809 41.7263C29.998 41.7521 29.816 41.7742 29.6348 41.7928C29.4536 41.8114 29.2833 41.8278 29.1241 41.842L29.0982 41.5303ZM32.2778 41.0976L33.1969 42.2749L32.9254 42.4076L32.0063 41.2303L32.2778 41.0976ZM31.3502 41.4554L32.3556 42.7432L32.0801 42.8778L31.0748 41.59L31.3502 41.4554ZM31.0006 42.3655L31.316 42.4213C31.3027 42.5295 31.2823 42.6428 31.2551 42.7611C31.2322 42.8803 31.2057 42.995 31.1757 43.1051C31.1501 43.2162 31.1206 43.3084 31.0874 43.3819L30.7285 43.3331C30.7644 43.2583 30.7987 43.1653 30.8313 43.0539C30.8658 42.9449 30.8971 42.8294 30.9252 42.7076C30.9551 42.5881 30.9802 42.474 31.0006 42.3655ZM33.0825 40.7426L33.3124 40.9117C33.2436 41.0279 33.1577 41.143 33.0546 41.257C32.9559 41.372 32.8608 41.4614 32.7693 41.5252L32.5141 41.3446C32.5725 41.3034 32.636 41.2501 32.7047 41.1847C32.7733 41.1194 32.8409 41.0482 32.9076 40.9711C32.9742 40.894 33.0326 40.8179 33.0825 40.7426ZM33.7302 42.2337L33.9108 42.4651L31.6046 43.5918L31.424 43.3605L33.7302 42.2337ZM34.6304 42.5999L34.819 42.8416L31.5802 44.4241C31.4884 44.469 31.4099 44.4914 31.3447 44.4915C31.2813 44.4938 31.2167 44.4761 31.151 44.4383C31.0878 44.3992 31.0195 44.3372 30.946 44.2523C30.8698 44.1687 30.7796 44.0601 30.6754 43.9266C30.7067 43.9018 30.745 43.8672 30.7901 43.8229C30.8353 43.7786 30.8716 43.7369 30.8992 43.698C30.9748 43.8042 31.045 43.8987 31.1097 43.9815C31.1744 44.0644 31.2184 44.1208 31.2418 44.1507C31.2659 44.177 31.2891 44.1927 31.3112 44.1978C31.3307 44.2042 31.3575 44.1991 31.3916 44.1824L34.6304 42.5999ZM32.5077 41.6149L32.7017 41.8634L31.9422 42.2345C31.8031 42.3025 31.6482 42.3686 31.4774 42.433C31.3066 42.4974 31.1192 42.5476 30.9154 42.5836C30.716 42.6206 30.4994 42.6311 30.2657 42.6149C30.0364 42.5997 29.7929 42.5455 29.5351 42.452C29.5496 42.4195 29.5621 42.3752 29.5727 42.3192C29.5851 42.2654 29.5918 42.216 29.5929 42.171C29.826 42.2606 30.047 42.3116 30.256 42.3239C30.4668 42.3386 30.6622 42.3289 30.8423 42.295C31.0268 42.2621 31.1957 42.2161 31.349 42.1571C31.5023 42.0981 31.6366 42.0404 31.7521 41.984L32.5077 41.6149ZM33.8767 41.6137L33.9842 41.9045C33.8179 41.919 33.6446 41.9338 33.4642 41.9488C33.2838 41.9638 33.1249 41.9714 32.9875 41.9718L32.9153 41.74C33.0077 41.733 33.111 41.7239 33.2254 41.7125C33.3397 41.7011 33.4536 41.6868 33.567 41.6696C33.683 41.6511 33.7863 41.6324 33.8767 41.6137ZM36.3325 45.0449L36.5212 45.2865L35.0257 46.0172C34.8736 46.0916 34.7073 46.1664 34.527 46.2418C34.3466 46.3172 34.1578 46.3841 33.9604 46.4423C33.7649 46.5029 33.5647 46.5482 33.3599 46.5784C33.1577 46.6072 32.9552 46.6124 32.7523 46.5939C32.7598 46.5711 32.7633 46.5408 32.7628 46.5029C32.7614 46.4686 32.7591 46.4331 32.7559 46.3965C32.7518 46.3635 32.747 46.3341 32.7413 46.3083C32.9981 46.3354 33.2503 46.3219 33.4979 46.2677C33.7455 46.2135 33.9823 46.1407 34.2082 46.0494C34.4386 45.9591 34.6482 45.8678 34.8371 45.7755L36.3325 45.0449ZM35.4696 46.5301C35.2298 46.6917 35.0178 46.8589 34.8336 47.0316C34.6521 47.2029 34.5112 47.3799 34.4109 47.5625C34.3106 47.745 34.2627 47.9321 34.2674 48.1238C34.2347 48.1144 34.1962 48.1045 34.152 48.0943C34.1052 48.0854 34.0592 48.0777 34.0142 48.071C33.971 48.0667 33.9295 48.0647 33.8899 48.065C33.899 47.8539 33.9602 47.6491 34.0735 47.4507C34.1868 47.2522 34.3442 47.0593 34.5458 46.8717C34.7491 46.6865 34.9847 46.5031 35.2524 46.3214L35.4696 46.5301ZM36.4295 45.1691L37.3837 46.3913L35.7702 47.1797L34.816 45.9575L35.0915 45.8229L35.8597 46.8069L36.9262 46.2858L36.158 45.3018L36.4295 45.1691ZM34.6239 43.9147L35.4702 44.9988L35.2341 45.1142L34.3877 44.0301L34.6239 43.9147ZM34.0296 44.205L34.876 45.2891L34.6438 45.4026L33.7974 44.3185L34.0296 44.205ZM33.3317 44.3696L34.2508 45.5469L34.0108 45.6642L33.0917 44.4869L33.3317 44.3696ZM35.4212 44.1213L35.591 44.3388L33.8122 45.2079L33.6424 44.9904L35.4212 44.1213ZM33.4636 45.3115L33.6091 45.4073C33.5645 45.4895 33.5094 45.5721 33.4437 45.6551C33.3798 45.7403 33.3209 45.8089 33.2671 45.8606L33.1017 45.7602C33.16 45.7094 33.221 45.6414 33.285 45.5562C33.3533 45.4719 33.4128 45.3904 33.4636 45.3115ZM33.2026 45.0956L33.3366 45.2114C33.2664 45.2934 33.1818 45.3776 33.0827 45.4642C32.9862 45.5495 32.8987 45.6161 32.8201 45.6641L32.6702 45.5417C32.7514 45.4925 32.8412 45.4264 32.9395 45.3434C33.0404 45.2591 33.1281 45.1765 33.2026 45.0956ZM32.9638 44.8593L33.0886 44.9844C32.9876 45.0592 32.8737 45.1339 32.7471 45.2085C32.6223 45.2854 32.5105 45.3464 32.4116 45.3915L32.2735 45.2634C32.375 45.217 32.4891 45.1565 32.6157 45.0819C32.7449 45.006 32.861 44.9319 32.9638 44.8593ZM32.8512 44.5758L32.9437 44.75C32.8194 44.8043 32.6915 44.8541 32.5601 44.8992C32.4304 44.9467 32.3032 44.9834 32.1785 45.0094C32.0538 45.0353 31.9358 45.0421 31.8246 45.0296L31.8098 44.8366C31.958 44.85 32.1234 44.8296 32.3058 44.7755C32.4908 44.72 32.6726 44.6535 32.8512 44.5758ZM35.1223 43.4947L36.1223 44.7756L35.8744 44.8967L35.0496 43.8402L33.3889 44.6517L33.2137 44.4273L35.1223 43.4947ZM34.1807 45.4571L34.3559 45.6815C34.3559 45.6815 34.3406 45.6874 34.31 45.6992C34.2811 45.7133 34.2553 45.7243 34.2325 45.7323C33.8964 45.8774 33.6237 45.99 33.4143 46.0701C33.2068 46.1524 33.0437 46.2082 32.9253 46.2375C32.8112 46.2678 32.7228 46.2776 32.6601 46.2669C32.6036 46.2595 32.5571 46.2441 32.5206 46.2206C32.4815 46.1983 32.4432 46.1678 32.4056 46.1289C32.3734 46.097 32.3361 46.0516 32.2938 45.9927C32.2489 45.9352 32.2035 45.8747 32.1576 45.8113C32.1925 45.791 32.2291 45.7636 32.2674 45.729C32.3048 45.698 32.3343 45.6662 32.3558 45.6334C32.3964 45.6994 32.4343 45.7572 32.4694 45.8068C32.5063 45.8587 32.5338 45.8962 32.5517 45.9192C32.5697 45.9422 32.5889 45.9598 32.6094 45.9721C32.6272 45.9857 32.6498 45.9937 32.6771 45.9962C32.7195 46.0041 32.7929 45.9937 32.8973 45.965C33.0044 45.9349 33.1564 45.8813 33.3535 45.8041C33.5549 45.7279 33.8163 45.6193 34.1375 45.4783L34.1807 45.4571Z" fill="white"/>
<path d="M120.043 154.516C115.014 157.037 108.296 155.838 105.11 151.859L88.4717 131.066C85.2853 127.087 86.801 121.773 91.8303 119.252C96.8597 116.731 103.577 117.93 106.763 121.909L123.402 142.702C126.588 146.681 125.072 151.995 120.043 154.516Z" fill="#231815"/>
<path d="M100.708 122.772L103.902 126.76L103.415 127.004L100.222 123.015L100.708 122.772ZM102.641 122.381L105.155 125.521L101.087 127.559L100.737 127.122L104.326 125.324L102.162 122.621L102.641 122.381ZM99.3486 123.914L101.776 126.945L101.296 127.186L98.8692 124.154L99.3486 123.914ZM103.336 123.525L103.69 123.967L101.423 125.103C101.19 125.22 100.941 125.331 100.673 125.437C100.406 125.543 100.123 125.629 99.8244 125.695C99.53 125.758 99.2185 125.789 98.8899 125.786C98.5613 125.783 98.2145 125.733 97.8495 125.637C97.4799 125.543 97.0948 125.389 96.6942 125.177C96.7148 125.139 96.7358 125.089 96.7573 125.028C96.7743 124.969 96.7919 124.907 96.8102 124.842C96.8317 124.781 96.8434 124.728 96.8452 124.682C97.2134 124.894 97.5622 125.046 97.8916 125.138C98.2256 125.228 98.5407 125.274 98.8369 125.276C99.1331 125.279 99.4099 125.249 99.6673 125.187C99.9325 125.127 100.181 125.049 100.413 124.956C100.645 124.862 100.864 124.763 101.069 124.66L103.336 123.525ZM102.691 121.652L102.875 122.147C102.383 122.203 101.877 122.234 101.356 122.238C100.838 122.246 100.33 122.227 99.8319 122.18C99.3372 122.138 98.8742 122.071 98.443 121.98C98.4713 121.943 98.5047 121.893 98.5431 121.829C98.5846 121.769 98.6246 121.707 98.663 121.643C98.7014 121.579 98.73 121.523 98.7487 121.475C99.1274 121.564 99.5372 121.632 99.9781 121.68C100.423 121.725 100.876 121.746 101.336 121.745C101.8 121.742 102.251 121.711 102.691 121.652ZM100.44 121.909L101.261 122.084L101.264 122.099L96.2648 124.604L95.9201 124.174L100.44 121.909ZM105.599 126.806L109.759 132.002L109.286 132.239L105.126 127.043L105.599 126.806ZM103.159 128.649L106.611 132.96L106.159 133.187L102.707 128.875L103.159 128.649ZM105.128 128.927L107.139 131.439L106.68 131.668L104.669 129.157L105.128 128.927ZM108.105 130.284C107.953 130.55 107.84 130.852 107.766 131.191C107.696 131.528 107.67 131.874 107.685 132.229C107.701 132.584 107.755 132.923 107.847 133.246C107.794 133.227 107.726 133.211 107.644 133.196C107.565 133.186 107.484 133.176 107.4 133.168C107.321 133.157 107.25 133.151 107.185 133.15C107.105 132.81 107.069 132.454 107.077 132.081C107.089 131.712 107.14 131.348 107.231 130.99C107.329 130.634 107.467 130.302 107.644 129.996L108.105 130.284ZM104.454 130.698L104.818 131.152L102.996 132.065C102.859 132.134 102.74 132.168 102.638 132.169C102.539 132.174 102.433 132.137 102.32 132.06C102.215 131.984 102.101 131.874 101.978 131.729C101.851 131.586 101.697 131.401 101.515 131.173C101.573 131.127 101.631 131.068 101.688 130.994C101.745 130.921 101.792 130.853 101.83 130.789C101.918 130.907 102.004 131.018 102.087 131.121C102.165 131.227 102.237 131.317 102.302 131.39C102.363 131.466 102.406 131.52 102.432 131.552C102.471 131.593 102.504 131.619 102.531 131.628C102.557 131.637 102.593 131.63 102.639 131.607L104.454 130.698ZM102.874 129.755L103.068 130.261C102.68 130.249 102.271 130.197 101.84 130.106C101.412 130.018 101.027 129.913 100.684 129.788C100.689 129.747 100.697 129.693 100.707 129.626C100.713 129.561 100.719 129.497 100.725 129.432C100.731 129.368 100.731 129.312 100.725 129.265C101.05 129.398 101.403 129.512 101.785 129.605C102.171 129.697 102.534 129.746 102.874 129.755ZM104.533 132.258L105.062 132.488C105.049 132.695 105.023 132.915 104.985 133.146C104.946 133.378 104.902 133.598 104.852 133.808C104.81 134.019 104.761 134.197 104.704 134.343L104.117 134.101C104.181 133.957 104.238 133.78 104.288 133.571C104.346 133.363 104.394 133.144 104.432 132.912C104.479 132.682 104.512 132.464 104.533 132.258ZM108.238 128.533L108.551 129.055C108.034 129.152 107.478 129.193 106.884 129.178C106.29 129.163 105.671 129.074 105.028 128.91C104.393 128.748 103.748 128.493 103.092 128.146C103.125 128.107 103.151 128.055 103.169 127.99C103.19 127.929 103.208 127.867 103.222 127.804C103.235 127.742 103.243 127.688 103.245 127.642C103.856 127.989 104.459 128.243 105.054 128.403C105.653 128.561 106.224 128.646 106.766 128.659C107.308 128.673 107.798 128.631 108.238 128.533ZM113.246 135.291L113.581 135.709L110.979 137.013C110.714 137.146 110.424 137.28 110.11 137.415C109.796 137.55 109.467 137.67 109.123 137.776C108.782 137.885 108.432 137.968 108.074 138.024C107.721 138.079 107.367 138.091 107.011 138.063C107.024 138.023 107.03 137.97 107.028 137.904C107.025 137.844 107.02 137.782 107.014 137.718C107.006 137.661 106.997 137.609 106.986 137.564C107.436 137.607 107.877 137.579 108.31 137.479C108.742 137.38 109.155 137.248 109.548 137.085C109.95 136.923 110.315 136.759 110.643 136.595L113.246 135.291ZM111.766 137.901C111.349 138.188 110.982 138.484 110.663 138.789C110.349 139.091 110.106 139.403 109.934 139.724C109.762 140.044 109.682 140.372 109.694 140.707C109.637 140.691 109.569 140.674 109.492 140.657C109.409 140.643 109.329 140.63 109.25 140.619C109.174 140.613 109.102 140.61 109.032 140.611C109.044 140.242 109.147 139.883 109.341 139.535C109.535 139.186 109.807 138.846 110.156 138.515C110.508 138.187 110.916 137.863 111.381 137.54L111.766 137.901ZM113.418 135.506L115.113 137.623L112.305 139.03L110.61 136.913L111.09 136.673L112.454 138.377L114.31 137.447L112.946 135.743L113.418 135.506ZM110.232 133.349L111.736 135.226L111.325 135.432L109.821 133.555L110.232 133.349ZM109.198 133.867L110.702 135.745L110.297 135.947L108.794 134.069L109.198 133.867ZM107.98 134.167L109.613 136.206L109.195 136.416L107.562 134.377L107.98 134.167ZM111.632 133.695L111.934 134.071L108.838 135.623L108.537 135.246L111.632 133.695ZM108.23 135.81L108.487 135.975C108.41 136.119 108.316 136.264 108.202 136.41C108.092 136.56 107.991 136.681 107.897 136.773L107.606 136.6C107.707 136.511 107.812 136.391 107.922 136.241C108.04 136.092 108.143 135.949 108.23 135.81ZM107.769 135.438L108.006 135.637C107.885 135.782 107.738 135.931 107.567 136.084C107.399 136.235 107.248 136.353 107.111 136.438L106.846 136.227C106.987 136.139 107.143 136.022 107.313 135.875C107.488 135.726 107.64 135.58 107.769 135.438ZM107.346 135.03L107.567 135.246C107.392 135.378 107.194 135.511 106.974 135.643C106.757 135.78 106.563 135.889 106.391 135.969L106.146 135.748C106.323 135.665 106.521 135.557 106.742 135.425C106.966 135.29 107.168 135.158 107.346 135.03ZM107.143 134.536L107.309 134.839C107.092 134.936 106.87 135.025 106.64 135.107C106.414 135.192 106.193 135.259 105.975 135.306C105.757 135.354 105.551 135.368 105.356 135.348L105.326 135.011C105.586 135.032 105.875 134.993 106.193 134.895C106.516 134.795 106.832 134.675 107.143 134.536ZM111.096 132.606L112.872 134.824L112.441 135.041L110.976 133.211L108.086 134.659L107.775 134.27L111.096 132.606ZM109.488 136.051L109.799 136.44C109.799 136.44 109.773 136.45 109.719 136.471C109.669 136.496 109.624 136.516 109.584 136.531C108.999 136.79 108.524 136.992 108.159 137.136C107.798 137.283 107.514 137.384 107.307 137.437C107.108 137.492 106.953 137.511 106.843 137.494C106.744 137.482 106.663 137.456 106.598 137.415C106.529 137.377 106.462 137.324 106.395 137.257C106.338 137.202 106.272 137.123 106.197 137.022C106.117 136.922 106.036 136.817 105.955 136.707C106.015 136.671 106.079 136.623 106.145 136.561C106.21 136.507 106.261 136.45 106.298 136.393C106.37 136.507 106.438 136.607 106.5 136.693C106.566 136.783 106.615 136.848 106.647 136.888C106.679 136.928 106.713 136.959 106.749 136.98C106.78 137.003 106.82 137.017 106.868 137.02C106.942 137.033 107.07 137.014 107.252 136.962C107.439 136.907 107.704 136.811 108.047 136.672C108.398 136.535 108.854 136.341 109.413 136.089L109.488 136.051Z" fill="white"/>
<path d="M394.883 326.777C394.883 326.777 227.881 105.096 217.547 91.2794C207.212 77.4763 200.426 62.6512 185.872 59.8306C171.335 57.0237 159.692 59.0676 152.268 50.8784C144.828 42.7028 125.055 10.123 125.055 10.123" stroke="#727171" stroke-width="6.77" stroke-linejoin="round"/>
<path d="M129.791 94.9157L240.816 55.4957C240.816 55.4957 270.544 46.8704 276.693 44.9219C282.825 42.9734 294.468 40.1528 299.635 36.8281C304.802 33.5033 342.591 10.1348 342.591 10.1348" stroke="#727171" stroke-width="3.57" stroke-linejoin="round"/>
<path d="M38.7637 2.0293C38.7637 2.0293 78.7573 55.1843 91.8819 64.6271C105.006 74.0699 117.011 75.487 124.435 88.2273C131.858 100.968 317.738 303.164 317.738 303.164" stroke="#4C4948" stroke-width="6.75" stroke-linejoin="round"/>
<path d="M135.198 115.77L130.218 118.265L129.796 117.739L134.144 115.56L134.124 115.534L132.466 114.877L133.079 114.57L134.777 115.243L135.198 115.77ZM137.121 118.115L136.018 118.667L138.345 121.573L139.448 121.021L137.121 118.115ZM137.226 117.442L140.28 121.257L138.267 122.266L135.212 118.451L137.226 117.442ZM134.017 117.894L138.331 123.281L137.858 123.518L133.545 118.13L134.017 117.894ZM133.955 119.709L136.397 122.759L135.924 122.996L133.483 119.946L133.955 119.709ZM136.267 122.598L136.655 123.082C136.655 123.082 136.64 123.087 136.609 123.097C136.579 123.106 136.541 123.119 136.497 123.136C136.46 123.154 136.429 123.167 136.403 123.175C135.96 123.324 135.585 123.439 135.279 123.52C134.977 123.599 134.725 123.647 134.522 123.665C134.319 123.683 134.15 123.673 134.016 123.633C133.886 123.598 133.777 123.547 133.691 123.478C133.599 123.412 133.505 123.323 133.408 123.209C133.319 123.114 133.204 122.971 133.063 122.779C132.921 122.593 132.77 122.392 132.61 122.176C132.684 122.134 132.756 122.075 132.825 122.002C132.894 121.928 132.945 121.852 132.979 121.774C133.08 121.924 133.18 122.07 133.28 122.21C133.379 122.35 133.472 122.474 133.558 122.581C133.643 122.695 133.706 122.778 133.747 122.83C133.805 122.902 133.856 122.957 133.9 122.996C133.94 123.038 133.988 123.067 134.046 123.083C134.151 123.119 134.292 123.127 134.467 123.106C134.646 123.089 134.877 123.043 135.162 122.967C135.447 122.891 135.79 122.781 136.192 122.635L136.267 122.598ZM134.998 119.346L135.299 119.866C135.058 119.908 134.8 119.954 134.525 120.002C134.255 120.048 133.99 120.089 133.73 120.124C133.474 120.163 133.242 120.193 133.034 120.213L132.752 119.692C132.959 119.672 133.193 119.644 133.453 119.609C133.712 119.574 133.977 119.534 134.248 119.487C134.522 119.439 134.772 119.392 134.998 119.346ZM142.25 129.219L142.24 129.734C141.941 129.655 141.627 129.567 141.299 129.469C140.975 129.368 140.69 129.268 140.444 129.168L140.463 128.773C140.638 128.831 140.83 128.888 141.042 128.944C141.256 129.004 141.47 129.059 141.682 129.109C141.895 129.159 142.084 129.195 142.25 129.219ZM144.493 126.016L144.781 126.568C144.563 126.582 144.339 126.591 144.111 126.593C143.887 126.594 143.689 126.59 143.516 126.581L143.324 126.15C143.497 126.142 143.695 126.126 143.92 126.103C144.144 126.08 144.335 126.051 144.493 126.016ZM141.726 126.263L141.13 126.562L142.744 128.577L143.34 128.279L141.726 126.263ZM142.712 125.769L142.117 126.068L143.73 128.083L144.326 127.784L142.712 125.769ZM142.8 125.147L145.088 128.006L142.664 129.22L140.375 126.362L142.8 125.147ZM141.568 127.457L141.894 127.863L139.052 129.288C138.92 129.354 138.808 129.39 138.717 129.397C138.625 129.409 138.528 129.388 138.426 129.333C138.329 129.276 138.229 129.186 138.125 129.065C138.017 128.946 137.888 128.793 137.738 128.605C137.796 128.565 137.858 128.512 137.926 128.444C137.989 128.379 138.043 128.316 138.09 128.253C138.194 128.391 138.289 128.514 138.375 128.622C138.461 128.729 138.518 128.801 138.547 128.837C138.584 128.874 138.613 128.896 138.637 128.901C138.66 128.906 138.69 128.899 138.726 128.881L141.568 127.457ZM139.605 126.43L140.404 127.429L139.966 127.648L139.166 126.65L139.605 126.43ZM140.323 127.327L140.39 127.411L140.461 127.476L140.541 127.779C139.91 127.95 139.323 128.012 138.781 127.966C138.241 127.923 137.754 127.802 137.318 127.601C137.342 127.567 137.362 127.52 137.379 127.462C137.399 127.407 137.414 127.349 137.423 127.289C137.435 127.232 137.442 127.184 137.442 127.145C137.839 127.337 138.274 127.457 138.747 127.505C139.221 127.553 139.718 127.507 140.24 127.368L140.323 127.327ZM141.822 127.833C141.611 127.994 141.41 128.178 141.219 128.386C141.027 128.594 140.861 128.822 140.721 129.071C140.581 129.32 140.484 129.59 140.428 129.88C140.381 130.172 140.394 130.481 140.469 130.806C140.415 130.794 140.348 130.783 140.269 130.772C140.198 130.763 140.125 130.755 140.049 130.749C139.969 130.744 139.896 130.741 139.831 130.74C139.778 130.41 139.785 130.096 139.855 129.799C139.927 129.505 140.038 129.232 140.187 128.979C140.343 128.727 140.515 128.498 140.703 128.293C140.898 128.089 141.089 127.909 141.278 127.753L141.822 127.833ZM142.337 123.335L142.482 123.815C142.255 123.828 142.016 123.837 141.763 123.84C141.513 123.848 141.267 123.852 141.023 123.851C140.787 123.852 140.575 123.847 140.386 123.835L140.295 123.445C140.488 123.454 140.705 123.454 140.947 123.445C141.192 123.439 141.437 123.426 141.682 123.404C141.93 123.385 142.148 123.363 142.337 123.335ZM142.092 124.396L142.189 124.876C141.829 124.866 141.438 124.849 141.017 124.826C140.6 124.8 140.19 124.768 139.788 124.73C139.389 124.695 139.031 124.651 138.713 124.598L138.671 124.233C138.911 124.27 139.176 124.301 139.467 124.329C139.762 124.354 140.063 124.374 140.369 124.388C140.679 124.4 140.982 124.408 141.278 124.41C141.575 124.412 141.846 124.408 142.092 124.396ZM140.144 123.101L140.66 123.17C140.636 123.332 140.602 123.501 140.555 123.675C140.512 123.853 140.464 124.019 140.409 124.175C140.355 124.331 140.296 124.461 140.232 124.565L139.648 124.507C139.716 124.4 139.782 124.266 139.845 124.106C139.912 123.95 139.971 123.783 140.022 123.607C140.072 123.431 140.113 123.262 140.144 123.101ZM140.337 124.948L140.751 125.202C140.672 125.359 140.576 125.519 140.464 125.681C140.351 125.844 140.236 125.996 140.12 126.139C140.011 126.282 139.906 126.399 139.805 126.489L139.326 126.226C139.439 126.136 139.554 126.02 139.671 125.877C139.795 125.737 139.915 125.587 140.031 125.429C140.152 125.268 140.254 125.108 140.337 124.948ZM138.506 123.847C138.727 124.099 138.989 124.398 139.291 124.744C139.601 125.091 139.917 125.447 140.24 125.81L139.809 126.026C139.501 125.689 139.194 125.354 138.889 125.021C138.592 124.689 138.325 124.393 138.09 124.131L138.506 123.847ZM138.809 125.94L139.182 126.214C139.051 126.386 138.894 126.557 138.71 126.727C138.53 126.902 138.363 127.041 138.21 127.146L137.804 126.855C137.964 126.758 138.135 126.625 138.319 126.454C138.507 126.282 138.671 126.111 138.809 125.94ZM137.907 124.658L138.141 125.069C137.785 125.192 137.42 125.296 137.048 125.382C136.683 125.47 136.354 125.523 136.062 125.541C136.061 125.508 136.054 125.464 136.042 125.408C136.034 125.351 136.024 125.294 136.012 125.239C136 125.184 135.988 125.137 135.976 125.098C136.266 125.092 136.578 125.047 136.914 124.963C137.254 124.877 137.585 124.775 137.907 124.658ZM139.1 124.949L139.416 125.343L136.348 126.881L136.032 126.486L139.1 124.949Z" fill="#231815"/>
<path d="M343.212 99.8906L35.3708 287.411" stroke="#4C4948" stroke-width="6.75" stroke-linejoin="round"/>
<path d="M216.186 89.4129C216.186 89.4129 281.602 64.8316 291.419 61.1799C301.237 57.5281 326.125 46.0278 332.912 41.94C339.698 37.8522 362.709 21.2148 362.709 21.2148" stroke="#727171" stroke-width="3.57" stroke-linejoin="round"/>
<path d="M182.823 159.94C185.561 161.984 185.699 165.432 183.116 167.598L164.359 183.391C161.775 185.557 157.418 185.666 154.679 183.622C151.941 181.578 151.803 178.131 154.386 175.964L173.143 160.172C175.727 158.005 180.084 157.896 182.823 159.94Z" fill="#231815"/>
<path d="M156.591 176.736L156.862 176.507L159.681 178.604C159.777 178.675 159.835 178.74 159.855 178.797C159.875 178.854 159.865 178.916 159.826 178.983C159.785 179.051 159.714 179.133 159.614 179.228C159.516 179.322 159.387 179.434 159.229 179.564C159.201 179.55 159.162 179.536 159.114 179.521C159.07 179.506 159.025 179.492 158.979 179.479C158.932 179.466 158.89 179.455 158.851 179.447C158.936 179.379 159.016 179.313 159.092 179.25C159.17 179.187 159.236 179.132 159.29 179.083C159.348 179.034 159.388 179 159.41 178.982C159.442 178.952 159.458 178.927 159.46 178.907C159.461 178.883 159.444 178.858 159.409 178.832L156.591 176.736ZM158.294 176.723L158.441 176.449C158.705 176.486 158.976 176.537 159.253 176.601C159.53 176.666 159.792 176.737 160.039 176.814C160.289 176.89 160.499 176.968 160.668 177.048L160.513 177.363C160.348 177.279 160.142 177.197 159.897 177.118C159.652 177.034 159.39 176.96 159.111 176.894C158.831 176.824 158.559 176.767 158.294 176.723ZM156.539 178.089L156.869 177.889C157.002 178.048 157.136 178.221 157.27 178.41C157.401 178.596 157.516 178.788 157.613 178.984C157.709 179.179 157.77 179.368 157.799 179.552C157.762 179.557 157.721 179.565 157.676 179.578C157.63 179.586 157.584 179.598 157.536 179.612C157.491 179.624 157.452 179.636 157.42 179.648C157.397 179.471 157.339 179.29 157.246 179.104C157.153 178.918 157.045 178.738 156.92 178.564C156.796 178.387 156.669 178.228 156.539 178.089ZM160.896 174.695L162.324 173.493L162.574 173.679L161.146 174.88L160.896 174.695ZM160.018 174.052L161.71 172.628L161.96 172.813L160.268 174.238L160.018 174.052ZM159.894 174.156L160.139 173.95L161.204 174.742C161.351 174.852 161.504 174.976 161.661 175.115C161.819 175.253 161.967 175.404 162.105 175.567C162.242 175.729 162.356 175.903 162.447 176.087C162.537 176.267 162.588 176.458 162.601 176.658C162.571 176.657 162.533 176.659 162.485 176.662C162.441 176.665 162.395 176.67 162.348 176.677C162.304 176.684 162.269 176.691 162.242 176.699C162.229 176.509 162.183 176.331 162.102 176.165C162.019 175.997 161.915 175.84 161.789 175.693C161.663 175.546 161.527 175.412 161.382 175.289C161.238 175.165 161.097 175.051 160.959 174.948L159.894 174.156ZM162.24 173.564L162.287 173.524L162.323 173.477L162.547 173.383C162.773 173.639 162.949 173.894 163.076 174.148C163.202 174.398 163.284 174.646 163.321 174.894C163.358 175.137 163.358 175.376 163.319 175.609C163.28 175.838 163.211 176.062 163.112 176.279C163.066 176.266 163.005 176.256 162.929 176.249C162.853 176.242 162.789 176.24 162.737 176.244C162.838 176.05 162.909 175.846 162.948 175.631C162.988 175.416 162.991 175.195 162.959 174.97C162.927 174.74 162.857 174.511 162.75 174.283C162.642 174.05 162.49 173.824 162.293 173.603L162.24 173.564ZM161.38 174.539C161.734 174.686 162.094 174.794 162.458 174.862C162.822 174.928 163.183 174.947 163.542 174.92C163.898 174.891 164.244 174.81 164.579 174.676C164.578 174.707 164.58 174.742 164.586 174.782C164.594 174.82 164.602 174.858 164.61 174.896C164.618 174.933 164.626 174.968 164.634 174.998C164.275 175.125 163.908 175.199 163.53 175.219C163.155 175.238 162.774 175.207 162.387 175.128C162 175.049 161.609 174.931 161.215 174.772L161.38 174.539ZM159.345 175.655L160.333 174.823L160.586 175.011L159.598 175.843L159.345 175.655ZM158.928 174.718L159.166 174.518L161.44 176.209L161.202 176.41L158.928 174.718ZM160.813 176.848C160.865 176.749 160.925 176.634 160.992 176.503C161.059 176.368 161.128 176.227 161.199 176.078C161.272 175.927 161.345 175.777 161.416 175.628L161.708 175.761C161.618 175.97 161.526 176.181 161.432 176.394C161.337 176.604 161.25 176.794 161.171 176.965L160.813 176.848ZM162.661 171.571L162.923 171.351L164.29 172.368C164.47 172.502 164.639 172.642 164.797 172.788C164.955 172.93 165.089 173.083 165.199 173.246C165.31 173.41 165.385 173.588 165.425 173.781C165.467 173.971 165.462 174.184 165.41 174.417C165.373 174.415 165.33 174.414 165.279 174.416C165.231 174.419 165.181 174.424 165.128 174.431C165.081 174.438 165.038 174.446 165.002 174.454C165.053 174.237 165.063 174.041 165.032 173.866C165 173.689 164.935 173.528 164.839 173.382C164.743 173.233 164.626 173.094 164.487 172.966C164.345 172.836 164.193 172.71 164.029 172.588L162.661 171.571ZM163.851 170.565L164.112 170.345L167.335 172.741L167.074 172.961L163.851 170.565ZM163.71 173.552L166.666 171.065L166.933 171.263L163.978 173.751L163.71 173.552ZM162.725 172.649L165.493 170.319L165.756 170.515L162.988 172.845L162.725 172.649ZM166.98 168.143L167.215 167.945L168.551 168.938C168.686 169.039 168.827 169.151 168.973 169.274C169.119 169.396 169.257 169.527 169.387 169.667C169.519 169.804 169.635 169.948 169.733 170.099C169.829 170.249 169.897 170.404 169.936 170.564C169.906 170.563 169.869 170.567 169.823 170.575C169.782 170.584 169.74 170.593 169.697 170.604C169.658 170.614 169.624 170.624 169.595 170.634C169.549 170.43 169.457 170.239 169.316 170.06C169.176 169.881 169.016 169.715 168.837 169.561C168.658 169.403 168.485 169.261 168.316 169.136L166.98 168.143ZM169.035 168.486C169.303 168.636 169.569 168.763 169.833 168.867C170.095 168.97 170.352 169.04 170.603 169.078C170.853 169.116 171.094 169.112 171.324 169.067C171.322 169.094 171.322 169.126 171.323 169.162C171.327 169.2 171.331 169.237 171.337 169.273C171.345 169.308 171.355 169.34 171.367 169.37C171.11 169.409 170.844 169.406 170.57 169.362C170.296 169.317 170.015 169.238 169.728 169.123C169.442 169.007 169.15 168.865 168.849 168.698L169.035 168.486ZM167.101 168.041L168.287 167.043L169.728 168.114L168.542 169.113L168.296 168.93L169.251 168.126L168.299 167.418L167.344 168.221L167.101 168.041ZM166.134 169.702L167.186 168.816L167.397 168.973L166.345 169.859L166.134 169.702ZM166.665 170.096L167.717 169.211L167.924 169.365L166.872 170.251L166.665 170.096ZM167.075 170.598L168.218 169.636L168.432 169.796L167.289 170.758L167.075 170.598ZM166.142 169.043L166.353 168.866L167.941 170.047L167.73 170.225L166.142 169.043ZM168.172 170.293L168.244 170.161C168.356 170.177 168.473 170.202 168.593 170.234C168.715 170.265 168.816 170.296 168.895 170.326L168.823 170.475C168.745 170.441 168.644 170.409 168.522 170.378C168.399 170.343 168.283 170.315 168.172 170.293ZM167.991 170.541L168.09 170.413C168.21 170.449 168.337 170.496 168.472 170.553C168.604 170.609 168.711 170.662 168.793 170.712L168.691 170.854C168.607 170.802 168.5 170.747 168.37 170.69C168.237 170.63 168.111 170.581 167.991 170.541ZM167.778 170.776L167.891 170.652C168.012 170.714 168.136 170.786 168.265 170.867C168.396 170.946 168.503 171.019 168.588 171.086L168.475 171.22C168.388 171.151 168.28 171.077 168.152 170.995C168.021 170.912 167.896 170.839 167.778 170.776ZM167.469 170.923L167.652 170.815C167.755 170.899 167.854 170.986 167.948 171.078C168.045 171.167 168.128 171.257 168.197 171.348C168.266 171.438 168.31 171.527 168.329 171.616L168.1 171.669C168.071 171.552 167.997 171.429 167.876 171.3C167.753 171.17 167.617 171.044 167.469 170.923ZM165.476 169.409L166.719 168.363L166.94 168.527L165.915 169.39L167.398 170.493L167.18 170.677L165.476 169.409ZM168.13 169.71L168.348 169.526C168.348 169.526 168.36 169.537 168.384 169.558C168.409 169.577 168.431 169.595 168.447 169.61C168.724 169.838 168.943 170.023 169.103 170.167C169.265 170.309 169.382 170.423 169.453 170.508C169.524 170.589 169.563 170.655 169.569 170.705C169.577 170.75 169.573 170.79 169.556 170.823C169.541 170.858 169.515 170.894 169.48 170.931C169.451 170.963 169.407 171.001 169.349 171.046C169.293 171.093 169.234 171.141 169.171 171.19C169.136 171.168 169.092 171.146 169.039 171.124C168.99 171.102 168.943 171.086 168.897 171.076C168.964 171.031 169.022 170.989 169.071 170.951C169.123 170.912 169.16 170.883 169.182 170.864C169.205 170.845 169.22 170.826 169.229 170.808C169.24 170.791 169.242 170.772 169.237 170.751C169.234 170.716 169.199 170.662 169.133 170.588C169.064 170.512 168.953 170.407 168.8 170.272C168.647 170.133 168.437 169.955 168.169 169.739L168.13 169.71Z" fill="white"/>
<path d="M139.023 86.9048C139.66 86.9048 140.194 86.7276 140.659 86.3733C141.107 86.0191 141.331 85.583 141.331 85.0789C141.331 84.5747 141.107 84.1523 140.659 83.7844C140.211 83.4165 139.66 83.253 139.023 83.253C138.386 83.253 137.852 83.4301 137.387 83.7844C136.922 84.1387 136.715 84.5747 136.715 85.0789C136.715 85.583 136.939 86.0054 137.387 86.3733C137.835 86.7276 138.386 86.9048 139.023 86.9048ZM139.023 96.0478C135.923 93.963 133.615 92.0281 132.082 90.2295C130.549 88.4309 129.791 86.7821 129.791 85.256C129.791 82.9669 130.721 81.1546 132.581 79.792C134.441 78.443 136.594 77.7617 139.04 77.7617C141.486 77.7617 143.639 78.443 145.499 79.792C147.359 81.141 148.289 82.9669 148.289 85.256C148.289 86.7821 147.532 88.4309 145.999 90.2295C144.466 92.0145 142.158 93.963 139.057 96.0478H139.023Z" fill="#C30D23"/>
<path d="M204.577 67.625H197.515C196.222 67.625 195.173 68.4547 195.173 69.4781V69.4918C195.173 70.5152 196.222 71.3449 197.515 71.3449H204.577C205.871 71.3449 206.919 70.5152 206.919 69.4918V69.4781C206.919 68.4547 205.871 67.625 204.577 67.625Z" fill="#231815"/>
<path d="M202.286 69.4904C202.286 70.1036 201.666 70.5941 200.891 70.5941C200.116 70.5941 199.496 70.1036 199.496 69.4904C199.496 68.8773 200.116 68.3867 200.891 68.3867C201.666 68.3867 202.286 68.8773 202.286 69.4904Z" fill="white"/>
<path d="M205.593 69.4904C205.593 70.1036 204.955 70.5941 204.198 70.5941C203.44 70.5941 202.802 70.1036 202.802 69.4904C202.802 68.8773 203.423 68.3867 204.198 68.3867C204.973 68.3867 205.593 68.8773 205.593 69.4904Z" fill="white"/>
<path d="M198.979 69.4904C198.979 70.1036 198.342 70.5941 197.584 70.5941C196.826 70.5941 196.189 70.1036 196.189 69.4904C196.189 68.8773 196.809 68.3867 197.584 68.3867C198.359 68.3867 198.979 68.8773 198.979 69.4904Z" fill="white"/>
<path d="M131.565 93.0625H124.503C123.209 93.0625 122.161 93.8922 122.161 94.9156V94.9293C122.161 95.9527 123.209 96.7824 124.503 96.7824H131.565C132.859 96.7824 133.907 95.9527 133.907 94.9293V94.9156C133.907 93.8922 132.859 93.0625 131.565 93.0625Z" fill="#231815"/>
<path d="M129.274 94.9182C129.274 95.5313 128.654 96.0219 127.879 96.0219C127.103 96.0219 126.483 95.5313 126.483 94.9182C126.483 94.305 127.103 93.8145 127.879 93.8145C128.654 93.8145 129.274 94.305 129.274 94.9182Z" fill="white"/>
<path d="M132.581 94.9182C132.581 95.5313 131.943 96.0219 131.185 96.0219C130.428 96.0219 129.79 95.5313 129.79 94.9182C129.79 94.305 130.41 93.8145 131.185 93.8145C131.96 93.8145 132.581 94.305 132.581 94.9182Z" fill="white"/>
<path d="M125.967 94.9182C125.967 95.5313 125.329 96.0219 124.572 96.0219C123.814 96.0219 123.177 95.5313 123.177 94.9182C123.177 94.305 123.797 93.8145 124.572 93.8145C125.347 93.8145 125.967 94.305 125.967 94.9182Z" fill="white"/>
<path d="M266.324 47.498H259.263C257.969 47.498 256.92 48.3277 256.92 49.3512V49.3648C256.92 50.3883 257.969 51.2179 259.263 51.2179H266.324C267.618 51.2179 268.667 50.3883 268.667 49.3648V49.3512C268.667 48.3277 267.618 47.498 266.324 47.498Z" fill="#231815"/>
<path d="M264.034 49.3635C264.034 49.9766 263.413 50.4672 262.638 50.4672C261.863 50.4672 261.243 49.9766 261.243 49.3635C261.243 48.7503 261.863 48.2598 262.638 48.2598C263.413 48.2598 264.034 48.7503 264.034 49.3635Z" fill="white"/>
<path d="M267.358 49.3635C267.358 49.9766 266.72 50.4672 265.963 50.4672C265.205 50.4672 264.567 49.9766 264.567 49.3635C264.567 48.7503 265.187 48.2598 265.963 48.2598C266.738 48.2598 267.358 48.7503 267.358 49.3635Z" fill="white"/>
<path d="M260.727 49.3635C260.727 49.9766 260.089 50.4672 259.332 50.4672C258.574 50.4672 257.937 49.9766 257.937 49.3635C257.937 48.7503 258.557 48.2598 259.332 48.2598C260.107 48.2598 260.727 48.7503 260.727 49.3635Z" fill="white"/>
<path d="M119.646 87.6543H83.0283V102.18H119.646V87.6543Z" fill="white" stroke="#231815" stroke-width="0.75" stroke-miterlimit="10"/>
<path d="M91.1648 88.8974H91.7853V95.0408C91.7853 95.2501 91.7547 95.4059 91.6934 95.508C91.6321 95.6102 91.5325 95.6842 91.3946 95.7302C91.2516 95.7761 91.0576 95.8068 90.8125 95.8221C90.5725 95.8374 90.2737 95.8425 89.9163 95.8374C89.906 95.7863 89.8856 95.7225 89.855 95.6459C89.8294 95.5744 89.8014 95.5029 89.7707 95.4314C89.7401 95.3599 89.7094 95.2961 89.6788 95.2399C89.8677 95.245 90.049 95.2476 90.2227 95.2476C90.3963 95.2527 90.5469 95.2527 90.6746 95.2476C90.8074 95.2476 90.8993 95.2476 90.9504 95.2476C91.027 95.2425 91.0806 95.2272 91.1112 95.2016C91.147 95.171 91.1648 95.1174 91.1648 95.0408V88.8974ZM93.0109 90.8507L93.5624 90.6439C93.7922 91.0014 94.0092 91.3844 94.2135 91.7929C94.4178 92.2015 94.5965 92.6023 94.7497 92.9955C94.908 93.3888 95.0204 93.7386 95.0868 94.045L94.4663 94.2977C94.4101 93.9913 94.308 93.6415 94.1599 93.2483C94.0169 92.85 93.8433 92.444 93.639 92.0304C93.4399 91.6116 93.2305 91.2184 93.0109 90.8507ZM89.1579 90.6975L89.8014 90.8048C89.7145 91.1776 89.6073 91.5708 89.4796 91.9844C89.352 92.393 89.1988 92.7887 89.02 93.1717C88.8413 93.5496 88.6345 93.8816 88.3996 94.1675C88.3536 94.1318 88.2974 94.096 88.2311 94.0603C88.1698 94.0194 88.1034 93.9811 88.0319 93.9454C87.9655 93.9096 87.9068 93.8816 87.8557 93.8611C88.0855 93.5905 88.2847 93.2739 88.4532 92.9113C88.6217 92.5487 88.7647 92.1759 88.8822 91.7929C89.0047 91.4048 89.0966 91.0397 89.1579 90.6975ZM98.7712 88.9511H99.3687V94.8722H98.7712V88.9511ZM96.0749 90.6209H96.6571V95.7455H96.0749V90.6209ZM101.567 90.6133H102.149V95.7148H101.567V90.6133ZM96.366 94.5352H101.82V95.125H96.366V94.5352Z" fill="#231815"/>
</svg>
